<?xml version="1.0" standalone="no"?>
<!DOCTYPE svg PUBLIC "-//W3C//DTD SVG 1.1//EN" "http://www.w3.org/Graphics/SVG/1.1/DTD/svg11.dtd" >
<svg xmlns="http://www.w3.org/2000/svg">
<metadata>
This is a custom SVG webfont generated by Font Squirrel.
Copyright   : Generated in 2010 by FontLab Studio Copyright info pending
Designer    : Campivisivi
Foundry     : Campivisivi
</metadata>
<defs>
<font id="TitilliumText22LBold" horiz-adv-x="1085" >
<font-face units-per-em="2048" ascent="1536" descent="-512" />
<missing-glyph horiz-adv-x="481" />
<glyph unicode=" "  horiz-adv-x="481" />
<glyph unicode="&#x09;" horiz-adv-x="481" />
<glyph unicode="&#xa0;" horiz-adv-x="481" />
<glyph unicode="!" d="M428 1434h256l-8 -920h-240zM430 0v305h252v-305h-252z" />
<glyph unicode="&#x22;" horiz-adv-x="696" d="M74 1417h227l-8 -491h-215zM408 1417h225l-8 -491h-213z" />
<glyph unicode="#" d="M6 348v197h207v266h-207v197h207v348h205v-348h248v348h204v-348h207v-197h-207v-266h207v-197h-207v-348h-204v348h-248v-348h-205v348h-207zM418 545h248v266h-248v-266z" />
<glyph unicode="$" d="M78 1026q0 199 128 300t357 101h21l26 207h138l-29 -217l264 -41l-18 -213q-147 16 -275 27l-49 -385q213 -63 293 -145t80 -257q0 -213 -128 -318t-349 -108l-31 -239q-137 6 -137 14l28 234q-141 14 -291 45l25 213q160 -23 297 -31l51 397q-221 59 -311 148.5 t-90 267.5zM313 1030q0 -72 41 -109.5t154 -74.5l45 350q-240 -4 -240 -166zM565 209q109 6 159 50t50 138q0 66 -36 104t-126 70z" />
<glyph unicode="%" d="M14 1145q0 291 248 291t248 -293q0 -139 -61.5 -217t-186.5 -78q-248 0 -248 297zM115 98l753 1327l121 -79l-751 -1328zM188 1145q0 -84 15.5 -119t58.5 -35t58.5 35t15.5 117t-15.5 115.5t-58.5 33.5t-58.5 -33.5t-15.5 -113.5zM584 299q0 293 247 293q250 0 250 -293 q0 -295 -250 -295q-247 0 -247 295zM760 299q0 -82 14 -117t57 -35t58.5 35t15.5 117t-14 114.5t-60 32.5q-43 0 -57 -32.5t-14 -114.5z" />
<glyph unicode="&#x26;" horiz-adv-x="1433" d="M76 410q0 274 295 417q-63 82 -84 141.5t-21 157.5q0 154 105.5 241t290.5 87q195 0 296 -89t101 -257q0 -137 -63.5 -225t-221.5 -189l205 -207q41 150 51 250l227 -4q-31 -217 -96 -393l240 -225l-141 -158l-222 199q-113 -104 -217 -150.5t-260 -46.5q-229 0 -357 118 t-128 333zM317 412q0 -109 68 -171.5t184 -62.5q92 0 157 27.5t136 95.5l-348 365q-197 -92 -197 -254zM502 1094q0 -117 90 -213l39 -39q106 63 148 113.5t42 127.5q0 152 -159.5 152t-159.5 -141z" />
<glyph unicode="'" horiz-adv-x="204" d="M-20 1417h227l-10 -495h-213z" />
<glyph unicode="(" horiz-adv-x="532" d="M31 616.5q0 182.5 49 411.5t100 369l49 139h254q-23 -59 -54.5 -158.5t-85.5 -344.5t-54 -417q0 -342 178 -829l16 -43h-254q-23 51 -55.5 139t-87.5 319.5t-55 414z" />
<glyph unicode=")" horiz-adv-x="532" d="M31 -256q23 57 54.5 152.5t85.5 333t54 407.5q0 172 -49 396t-98 364l-47 139h254q23 -55 55.5 -147.5t87.5 -331t55 -420.5t-49 -405.5t-98 -354.5l-51 -133h-254z" />
<glyph unicode="*" d="M227 938l217 160l-211 153l84 115l207 -147l84 245l135 -45l-77 -254h256v-135h-258l79 -250l-133 -39l-84 250l-213 -162z" />
<glyph unicode="+" horiz-adv-x="1036" d="M6 473v213h406v404h213v-404h409v-213h-409v-407h-213v407h-406z" />
<glyph unicode="," horiz-adv-x="348" d="M10 -252l103 512h252l-121 -512h-234z" />
<glyph unicode="-" horiz-adv-x="901" d="M139 461v229h623v-229h-623z" />
<glyph unicode="." horiz-adv-x="507" d="M115 0v305h252v-305h-252z" />
<glyph unicode="/" d="M137 37l576 1429l223 -77l-576 -1428z" />
<glyph unicode="0" d="M25 664q0 381 130 546.5t386 165.5q258 0 387 -166t129 -546q0 -371 -129 -529t-387 -158q-256 0 -386 157t-130 530zM283 664q0 -262 59 -359.5t201 -97.5q139 0 197.5 96t58.5 361q0 272 -57.5 376.5t-199 104.5t-200.5 -104.5t-59 -376.5z" />
<glyph unicode="1" d="M82 1061l438 291h225v-1352h-241v1071l-309 -203z" />
<glyph unicode="2" d="M109 0v221l317 320q111 111 156 162t85 122.5t40 139.5q0 92 -58.5 132t-187.5 40l-328 -35l-16 221q211 53 401 53q223 0 329.5 -94t106.5 -285q0 -150 -61.5 -258t-218.5 -266l-244 -242h551v-231h-872z" />
<glyph unicode="3" d="M96 25l25 217q225 -31 393 -31q240 0 240 184q0 172 -224 176h-274v220h272q74 0 135.5 57t61.5 127q0 168 -227 168q-74 0 -164 -8.5t-144 -16.5l-53 -6l-22 211q227 53 399 53q252 0 356.5 -88t104.5 -278q0 -78 -30 -140.5t-61.5 -91t-82.5 -63.5q104 -49 152 -113.5 t48 -200.5q0 -215 -108.5 -319.5t-345.5 -104.5q-205 1 -451 48z" />
<glyph unicode="4" d="M49 215v197l352 940h267l-344 -906h331v416h242v-416h139v-231h-139v-231h-242v231h-606z" />
<glyph unicode="5" d="M82 41l27 215q258 -49 432 -49q100 0 160.5 60.5t60.5 162.5q0 203 -221 203q-59 0 -121 -11.5t-92 -23.5l-33 -12l-186 39l43 729h813v-232h-596l-33 -313q139 49 229 49q221 0 333 -99.5t112 -316.5q0 -223 -120 -344t-339 -121q-94 0 -211 16.5t-188 31.5z" />
<glyph unicode="6" d="M53 674q0 377 141.5 539.5t409.5 162.5q76 0 174.5 -10t159.5 -20l59 -11l-20 -221q-201 29 -373 29q-303 0 -303 -344l47 14q45 14 116 30.5t122 16.5q461 0 461 -432q0 -221 -128 -336t-360 -115q-506 1 -506 697zM299 590q4 -387 260 -387q240 0 240 225 q0 211 -234 211q-125 -6 -266 -49z" />
<glyph unicode="7" d="M104 1122v232h857v-285l-500 -1102l-223 64l475 1042v49h-609z" />
<glyph unicode="8" d="M39 344q0 94 25.5 160.5t62.5 106.5t104 89q-94 66 -132 133.5t-38 180.5q0 172 131.5 267t356.5 95q223 0 359 -95t136 -269q0 -121 -35.5 -182.5t-138.5 -129.5q102 -70 148.5 -139t46.5 -194q0 -203 -142.5 -296.5t-373.5 -93.5q-510 0 -510 367zM297 397 q0 -190 252 -190q258 0 258 194q0 127 -162 181h-190q-158 -54 -158 -185zM319 977q0 -113 136 -182h190q141 70 141 182q0 168 -233.5 168t-233.5 -168z" />
<glyph unicode="9" d="M43 924q0 215 132 333.5t355 118.5q508 0 508 -696q0 -381 -140 -542t-413 -161q-76 0 -175 9.5t-158 19.5l-62 10l23 217q201 -29 372 -28q152 0 229 90t77 254l-48 -12q-47 -14 -118.5 -28.5t-122.5 -14.5q-221 0 -340 107.5t-119 322.5zM293 924q0 -211 229 -211 q53 0 121 12t109 25l41 14q-2 174 -66.5 279.5t-196.5 105.5q-111 0 -174 -58t-63 -167z" />
<glyph unicode=":" horiz-adv-x="434" d="M88 0v305h254v-305h-254zM88 614v306h254v-306h-254z" />
<glyph unicode=";" horiz-adv-x="464" d="M23 -236l116 529h254l-153 -529h-217zM123 614v306h252v-306h-252z" />
<glyph unicode="&#x3c;" d="M129 508v246l711 391v-246l-482 -264l482 -275v-245q-100 51 -359 196z" />
<glyph unicode="=" d="M51 262v213h961v-213h-961zM51 686v213h961v-213h-961z" />
<glyph unicode="&#x3e;" d="M129 115v245l481 275l-481 264v246l711 -391v-246l-353 -197q-258 -145 -358 -196z" />
<glyph unicode="?" horiz-adv-x="790" d="M12 1403q238 57 348 57q238 0 344.5 -88t106.5 -301q0 -100 -38 -182t-92 -132t-109.5 -91t-93.5 -82t-38 -84v-78h-252v84q0 76 38 137.5t92 102.5l108 82q53 40 91 94.5t38 119.5q0 94 -41 133t-164 39l-309 -40zM188 0v305h252v-305h-252z" />
<glyph unicode="@" horiz-adv-x="2017" d="M90 535q0 481 249 717.5t693 236.5q895 0 895 -864v-35q0 -342 -94 -476t-289 -134q-184 0 -256 96q-188 -94 -325 -94q-182 0 -279.5 115.5t-97.5 398.5q0 272 87 409t312 137q31 0 83 -11t87 -23l37 -13v29h233v-410q0 -188 11.5 -275t34 -110.5t73.5 -23.5 q80 0 114 74.5t34 310.5v37q0 342 -155 488.5t-505 146.5q-707 0 -706 -727q0 -399 161.5 -565.5t544.5 -166.5l293 19l10 -225q-205 -20 -303 -21q-236 0 -404.5 46t-292.5 154.5t-184.5 297.5t-60.5 461zM823 496q0 -160 40 -222.5t116 -62.5q96 0 229 49q-16 90 -16 256 v279q-102 27 -158 26q-129 0 -170 -67.5t-41 -257.5z" />
<glyph unicode="A" horiz-adv-x="1239" d="M47 0l338 1417h473l334 -1417h-242l-78 279h-514l-69 -279h-242zM410 510h415l-157 686h-97z" />
<glyph unicode="B" horiz-adv-x="1247" d="M158 0v1417h532q430 0 430 -356q0 -137 -38 -211t-126 -123q100 -41 147.5 -114.5t47.5 -213.5q0 -399 -446 -399h-547zM395 221h297q106 0 158.5 45t52.5 152q0 186 -215 186h-293v-383zM395 821h289q188 0 188 199q0 92 -47 134t-147 42h-283v-375z" />
<glyph unicode="C" horiz-adv-x="1095" d="M90 707q0 395 116 564t410 169q80 0 180.5 -13.5t161.5 -27.5l62 -15l-8 -210q-240 31 -363 30q-184 0 -247.5 -104.5t-63.5 -392.5q0 -283 62.5 -388.5t256.5 -105.5q49 0 138.5 8t152.5 17l64 8l6 -217q-240 -51 -402 -52q-307 0 -416.5 172.5t-109.5 557.5z" />
<glyph unicode="D" horiz-adv-x="1292" d="M158 0v1417h477q170 0 282.5 -43t175 -134t87 -211t24.5 -296q0 -184 -23.5 -309t-84 -226.5t-174 -149.5t-287.5 -48h-477zM395 229h240q102 0 167.5 36t98.5 108.5t44 154.5t11 205q0 242 -62.5 348.5t-258.5 106.5h-240v-959z" />
<glyph unicode="E" horiz-adv-x="1140" d="M158 0v1417h884v-229h-647v-371h525v-225h-525v-363h647v-229h-884z" />
<glyph unicode="F" horiz-adv-x="1112" d="M158 0v1417h884v-229h-647v-457h525v-227h-525v-504h-237z" />
<glyph unicode="G" horiz-adv-x="1226" d="M90 711q0 383 125 556t430 173q215 0 477 -58l-6 -208q-250 33 -436 32q-201 0 -271.5 -105.5t-70.5 -390t66.5 -392t269.5 -107.5q27 0 58.5 1t57 3t47.5 5l35 5h13v301h-162v215h399v-716q-291 -47 -469 -48q-315 0 -439 180.5t-124 553.5z" />
<glyph unicode="H" horiz-adv-x="1380" d="M158 0v1417h239v-581h586v581h242v-1417h-242v604h-586v-604h-239z" />
<glyph unicode="I" horiz-adv-x="548" d="M154 0v1417h241v-1417h-241z" />
<glyph unicode="J" horiz-adv-x="638" d="M63 80q100 0 140.5 33.5t40.5 134.5v1169h239q0 -217 1 -591.5t1 -594.5q0 -225 -94 -300.5t-328 -75.5v225z" />
<glyph unicode="K" horiz-adv-x="1216" d="M158 0v1417h239v-622l201 16l274 606h277l-336 -706l350 -711h-280l-281 580l-205 -17v-563h-239z" />
<glyph unicode="L" horiz-adv-x="1015" d="M158 0v1417h239v-1186h549v-231h-788z" />
<glyph unicode="M" horiz-adv-x="1738" d="M158 0v1417h391l321 -1077l322 1077h389v-1417h-242v1118h-28l-318 -1061h-245l-320 1061h-31v-1118h-239z" />
<glyph unicode="N" horiz-adv-x="1429" d="M158 0v1417h389l450 -1118h35v1118h242v-1417h-379l-463 1118h-35v-1118h-239z" />
<glyph unicode="O" horiz-adv-x="1323" d="M90 698q0 375 128 558.5t443.5 183.5t443.5 -183.5t128 -558t-127 -548t-444.5 -173.5t-444.5 174t-127 547zM338 698q0 -262 67.5 -375.5t256 -113.5t256 112.5t67.5 377t-68.5 387t-255 122.5t-255 -123t-68.5 -387z" />
<glyph unicode="P" horiz-adv-x="1222" d="M158 0v1417h514q481 0 481 -481q0 -244 -122 -376t-359 -132h-275v-428h-239zM397 659h273q238 0 237 277q0 250 -237 250h-273v-527z" />
<glyph unicode="Q" horiz-adv-x="1323" d="M90 698q0 375 128 558.5t443.5 183.5t443.5 -183.5t128 -558.5q0 -246 -50 -400.5t-167 -231.5l168 -275l-221 -102l-185 297q-47 -8 -116 -9q-317 0 -444.5 174t-127.5 547zM338 698q0 -262 67.5 -375.5t256 -113.5t256 112.5t67.5 377t-68.5 387t-255 122.5t-255 -123 t-68.5 -387z" />
<glyph unicode="R" horiz-adv-x="1263" d="M158 0v1417h534q246 0 362.5 -108.5t116.5 -347.5q0 -297 -223 -408l223 -553h-264l-194 483h-316v-483h-239zM397 713h299q227 0 228 243q0 231 -232 232h-295v-475z" />
<glyph unicode="S" horiz-adv-x="1087" d="M72 1036q0 199 129 302.5t362 103.5q70 0 176.5 -12.5t178.5 -24.5l69 -14l-18 -215q-287 33 -406 32q-252 0 -252 -168q0 -86 59.5 -126t247.5 -93q229 -68 314.5 -150.5t85.5 -262.5q0 -215 -130 -323t-353 -108q-70 0 -177.5 13.5t-181.5 25.5l-74 15l25 215 q260 -35 405 -35q127 0 185.5 44t58.5 146q0 82 -55 124t-215 83q-240 61 -337 152.5t-97 275.5z" />
<glyph unicode="T" horiz-adv-x="991" d="M-16 1186v231h1024v-231h-390v-1186h-241v1186h-393z" />
<glyph unicode="U" horiz-adv-x="1308" d="M135 457v960h242v-960q0 -131 70.5 -185.5t203.5 -54.5q135 0 208 55.5t73 184.5v960h242v-960q0 -250 -130.5 -362.5t-392.5 -112.5q-258 0 -387 112.5t-129 362.5z" />
<glyph unicode="V" horiz-adv-x="1241" d="M47 1417h252l272 -1188h99l272 1188h252l-342 -1417h-465z" />
<glyph unicode="W" horiz-adv-x="1898" d="M57 1417h252l230 -1171h41l233 1167h272l238 -1167h39l227 1171h252l-311 -1417h-375l-207 1061l-203 -1061h-374z" />
<glyph unicode="X" horiz-adv-x="1189" d="M41 0l397 702l-397 715h268l287 -528l285 528h268l-391 -715l391 -702h-268l-285 520l-287 -520h-268z" />
<glyph unicode="Y" horiz-adv-x="1157" d="M27 1417h268l285 -543l282 543h268l-428 -813v-604h-241v606z" />
<glyph unicode="Z" horiz-adv-x="1167" d="M123 0v246l616 905v35h-616v231h921v-246l-616 -907v-33h616v-231h-921z" />
<glyph unicode="[" horiz-adv-x="614" d="M66 1534h489v-229h-248v-1328h248v-229h-487z" />
<glyph unicode="\" horiz-adv-x="1114" d="M94 1370l260 115l643 -1436l-258 -108z" />
<glyph unicode="]" horiz-adv-x="614" d="M66 -23h249v1328h-249v229h489l-2 -1786h-487v229z" />
<glyph unicode="^" d="M51 649l367 703h246l370 -703h-248l-243 471l-246 -471h-246z" />
<glyph unicode="_" horiz-adv-x="1064" d="M55 10h877v-213h-877v213z" />
<glyph unicode="`" horiz-adv-x="526" d="M-25 1362l74 207l500 -189l-68 -184z" />
<glyph unicode="a" horiz-adv-x="1077" d="M88 305q0 158 84 228.5t258 82.5l254 21v61q0 59 -34 91t-93 32q-68 0 -166 -5t-164 -9l-65 -4l-8 198q264 45 415 46q174 0 261.5 -81t87.5 -266v-421q2 -53 20 -74t63 -29l-8 -199q-113 0 -168 16.5t-106 55.5q-176 -72 -334 -72q-143 0 -220 87t-77 241zM324 311 q0 -133 104 -133l256 41v236l-225 -13q-135 -12 -135 -131z" />
<glyph unicode="b" horiz-adv-x="1114" d="M152 4v1442h233v-455q139 55 248 56q211 0 305 -120t94 -403q0 -313 -110.5 -430t-389.5 -117zM385 199q106 -10 145 -11q158 0 211.5 74t53.5 262q0 166 -46.5 235.5t-146.5 69.5q-41 0 -95 -7t-89 -15l-33 -6v-602z" />
<glyph unicode="c" horiz-adv-x="892" d="M82 524q0 276 101.5 399.5t328.5 123.5q49 0 127 -9.5t131 -19.5l53 -10l-8 -203q-162 18 -240 18q-154 0 -205 -64.5t-51 -234.5q0 -190 50.5 -257.5t208.5 -67.5l239 18l6 -203q-209 -37 -317 -37q-231 0 -327.5 126t-96.5 421z" />
<glyph unicode="d" horiz-adv-x="1122" d="M82 518q0 274 103.5 401.5t322.5 127.5q96 0 229 -27v414h236v-1434h-236v49q-145 -72 -266 -72q-205 0 -297 126t-92 415zM319 516q0 -178 45.5 -247.5t143.5 -73.5q100 2 229 45v575q-2 0 -37.5 4l-86 9.5t-89.5 5.5q-106 0 -155.5 -75t-49.5 -243z" />
<glyph unicode="e" horiz-adv-x="1038" d="M82 500q0 547 444 547q436 0 437 -467l-17 -168h-629q2 -115 54.5 -168.5t175.5 -53.5l377 19l4 -182q-233 -49 -416 -50q-229 0 -329.5 125.5t-100.5 397.5zM317 594h414q0 133 -47 188.5t-158 55.5q-109 0 -159 -58.5t-50 -185.5z" />
<glyph unicode="f" horiz-adv-x="696" d="M43 811v211h117v63q0 219 63.5 300t227.5 81l223 -22l-2 -193q-98 4 -162 4q-68 0 -92.5 -36.5t-24.5 -135.5v-61h264v-211h-264v-811h-233v811h-117z" />
<glyph unicode="g" horiz-adv-x="1087" d="M80 -182q0 76 36 132t115 118q-68 45 -67 149q0 47 76 162q-147 92 -148 307q0 184 112.5 271t301.5 87q41 0 93 -6t85 -14l31 -6l311 6v-190h-147q43 -59 43 -148q0 -203 -100.5 -279.5t-319.5 -76.5q-49 0 -90 8q-25 -66 -25 -92q0 -47 37 -61.5t178 -14.5 q248 0 339 -65.5t91 -241.5q0 -182 -130 -268.5t-347 -86.5q-246 0 -360.5 67t-114.5 243zM311 -158q0 -66 56.5 -94.5t189.5 -28.5q238 0 238 131q0 76 -41 95.5t-170 21.5l-199 13q-74 -66 -74 -138zM328 686q0 -84 39 -122t135 -38q100 0 144 36t44 124t-42 123t-144 35 q-94 0 -135 -36t-41 -122z" />
<glyph unicode="h" horiz-adv-x="1150" d="M152 0v1454h233v-467q162 59 274 60q205 0 281 -120t76 -390v-537h-236v535q0 158 -32.5 225t-133.5 67q-41 0 -98 -8t-94 -16l-37 -10v-793h-233z" />
<glyph unicode="i" horiz-adv-x="526" d="M147 0v1022h234v-1022h-234zM147 1188v248h234v-248h-234z" />
<glyph unicode="j" horiz-adv-x="538" d="M-68 -301q145 86 186.5 139t41.5 174v1010h233v-1012q0 -203 -70.5 -300t-285.5 -206zM160 1202v248h233v-248h-233z" />
<glyph unicode="k" horiz-adv-x="1046" d="M152 0v1446h233v-819l123 16l235 379h263l-289 -479l301 -543h-264l-242 414l-127 -17v-397h-233z" />
<glyph unicode="l" horiz-adv-x="530" d="M150 0v1446h233v-1446h-233z" />
<glyph unicode="m" horiz-adv-x="1746" d="M152 0v1022h231v-55q86 47 178 63q66 14 107 14q152 -6 229 -86q227 88 356 89q203 0 280 -118t77 -394v-535h-234v442q0 231 -26.5 308t-141.5 77q-45 0 -100 -12t-88 -24.5t-35 -14.5q14 -33 14 -246v-530h-233v526q0 174 -32 237.5t-136 63.5q-41 0 -94 -12t-86 -24 l-33 -11v-780h-233z" />
<glyph unicode="n" horiz-adv-x="1153" d="M152 0v1022h233v-51q162 76 274 76q205 0 281 -120t76 -392v-535h-234v532q0 158 -32.5 226.5t-135.5 68.5q-41 0 -98 -12t-94 -24l-37 -11v-780h-233z" />
<glyph unicode="o" horiz-adv-x="1083" d="M82 516q0 260 106.5 395.5t354.5 135.5q244 0 351 -136.5t107 -394.5q0 -264 -103 -401.5t-355 -137.5t-356.5 136.5t-104.5 402.5zM319 516q0 -176 46.5 -252t177.5 -76q129 0 175 77t46 251q0 166 -50 242t-171 76q-127 0 -175.5 -74t-48.5 -244z" />
<glyph unicode="p" horiz-adv-x="1116" d="M152 -438v1460h233v-55q139 80 256 80q205 0 299 -121t94 -404q0 -309 -107.5 -427t-351.5 -118q-98 0 -190 19v-434h-233zM385 203q57 -14 174 -15q135 0 186.5 74t51.5 260q0 166 -50.5 237.5t-148.5 71.5q-90 0 -213 -53v-575z" />
<glyph unicode="q" horiz-adv-x="1097" d="M82 498q0 268 107.5 408.5t359.5 140.5q51 0 150.5 -6.5t172.5 -12.5l76 -6v-1462h-235v452q-72 -35 -185 -35q-236 0 -341 132.5t-105 388.5zM317 498q0 -309 211 -310q41 0 87.5 10.5t72.5 22.5l25 10v598q-109 4 -164 5q-123 0 -177.5 -82t-54.5 -254z" />
<glyph unicode="r" horiz-adv-x="735" d="M152 0v1022h233v-109q135 100 309 134v-250q-184 -37 -309 -107v-690h-233z" />
<glyph unicode="s" horiz-adv-x="1011" d="M102 723q0 164 110 244t277 80l390 -48l-5 -198q-246 33 -368 33q-92 0 -131 -24t-39 -81q0 -47 41 -66.5t172 -39.5q205 -33 282.5 -100.5t77.5 -217.5q0 -328 -407 -328q-66 0 -161 11.5t-159 23.5l-63 11l8 198q248 -33 352 -33q109 0 153 25t44 86q0 49 -37 69.5 t-160 41.5q-209 35 -293 98t-84 215z" />
<glyph unicode="t" horiz-adv-x="724" d="M39 811v211h129v297h233v-297h277v-211h-277v-418q0 -117 17.5 -155.5t89.5 -38.5l166 6l10 -201q-137 -29 -209 -29q-176 0 -241.5 82t-65.5 303v451h-129z" />
<glyph unicode="u" horiz-adv-x="1146" d="M137 487v535h234v-533q0 -178 28.5 -239.5t139.5 -61.5q41 0 96 12.5t90 24.5l37 11v786h233v-1022h-233v51q-160 -74 -270 -74q-213 0 -284 113.5t-71 396.5z" />
<glyph unicode="v" horiz-adv-x="989" d="M27 1022h243l195 -827h61l199 827h238l-263 -1022h-413z" />
<glyph unicode="w" horiz-adv-x="1540" d="M35 1022h231l152 -811h45l184 793h246l184 -793h45l152 811h231l-209 -1022h-378l-150 684l-150 -684h-374z" />
<glyph unicode="x" horiz-adv-x="952" d="M33 0l291 510l-291 512h250l192 -344l195 344h250l-293 -512l293 -510h-250l-195 342l-192 -342h-250z" />
<glyph unicode="y" horiz-adv-x="991" d="M27 1022h231l211 -795h53l211 795h232l-381 -1458h-232l113 436h-172z" />
<glyph unicode="z" horiz-adv-x="978" d="M109 0v211l479 602h-479v211h759v-211l-477 -602h477v-211h-759z" />
<glyph unicode="{" horiz-adv-x="671" d="M39 541v196q113 29 155 73t42 124q0 27 -7.5 124t-7.5 138q0 190 99.5 270t326.5 88l2 -229q-109 -8 -142.5 -38t-33.5 -107q0 -35 7 -133.5t7 -126.5q0 -123 -45 -182.5t-159 -96.5q113 -37 158.5 -102.5t45.5 -188.5q0 -31 -7 -117t-7 -120q0 -80 35 -113t141 -41 l-2 -229q-223 8 -324.5 91t-101.5 263q0 43 7.5 134t7.5 114q0 80 -43 129t-154 80z" />
<glyph unicode="|" d="M412 -401v1917h241v-1917h-241z" />
<glyph unicode="}" horiz-adv-x="671" d="M39 -41q106 8 141 41t35 113q0 35 -7 120.5t-7 116.5q0 123 46 188.5t159 102.5q-115 37 -160 96.5t-45 182.5q0 29 7 127t7 133q0 78 -34 107.5t-142 37.5l2 229q227 -8 326.5 -88t99.5 -270q0 -41 -7 -138t-7 -124q0 -80 42 -124t154 -73v-196q-111 -31 -153.5 -80 t-42.5 -129q0 -23 7 -114t7 -134q0 -180 -101.5 -263t-324.5 -91z" />
<glyph unicode="~" d="M123 686q12 12 34.5 30.5t88 49.5t127.5 31q55 0 188 -47.5t180 -47.5q35 0 86.5 21.5t85.5 42.5l33 20l17 -219l-32 -30q-19 -18 -81 -48t-119 -30q-59 0 -196.5 47t-174.5 47q-41 0 -96 -21.5t-88 -44.5l-35 -20z" />
<glyph unicode="&#xa1;" d="M428 -412l8 920h240l8 -920h-256zM430 717v305h252v-305h-252z" />
<glyph unicode="&#xa2;" horiz-adv-x="894" d="M43 510q0 422 371 448v220h196v-228l174 -20l-6 -203q-172 8 -250 8q-139 0 -192 -47t-53 -178t53 -177t199 -46l243 10l8 -203l-174 -22v-230h-198v221q-184 12 -277.5 118t-93.5 329z" />
<glyph unicode="&#xa3;" d="M143 0v203h160v473h-133v205h133v133q0 215 93 297t257 82q49 0 117 -7.5t111 -13.5l43 -8v-201q-164 20 -265 21q-70 0 -98.5 -41t-28.5 -142v-120h326v-205h-326v-473h275l147 33l37 -199l-166 -35z" />
<glyph unicode="&#xa4;" d="M49 184l150 148q-47 86 -47 184t47 184l-150 148l162 162l147 -150q86 45 184.5 45t184.5 -45l147 150l162 -162l-149 -148q47 -86 47 -184t-47 -184l149 -148l-162 -161l-147 149q-86 -45 -184.5 -45t-184.5 45l-147 -149zM365 516q0 -74 53 -125q51 -51 124.5 -51 t125.5 51q53 51 53 125t-53 125q-51 51 -125 51t-125 -51q-53 -51 -53 -125z" />
<glyph unicode="&#xa5;" horiz-adv-x="1105" d="M2 1352h268l285 -473l283 473h268l-313 -543h215v-197h-326l-4 -37v-67h330v-197h-330v-311h-242v311h-338v197h338v67l-6 37h-332v197h221z" />
<glyph unicode="&#xa6;" d="M412 -401v833h239v-833h-239zM412 698v838h239v-838h-239z" />
<glyph unicode="&#xa7;" d="M115 465q0 74 42 153.5t85 114.5q-90 66 -90 223q0 358 428 359q63 0 151 -10.5t146 -22.5l55 -10l-12 -191q-227 31 -326 31q-123 0 -169 -34t-46 -117q0 -61 57.5 -90t225.5 -66q182 -43 249.5 -102.5t67.5 -203t-98 -280.5q41 -35 59 -81t18 -136q0 -190 -102 -277 t-324 -87q-61 0 -155 11t-156 21l-63 11l22 190q223 -31 336 -31q219 0 219 146q0 68 -53 94t-240 70q-180 43 -253.5 107.5t-73.5 207.5zM350 506q0 -70 33 -97.5t127 -48.5q125 -33 190 -57q12 16 26.5 68.5t14.5 95.5q0 63 -38.5 93t-149.5 56q-141 31 -158 37 q-12 -18 -28.5 -64t-16.5 -83z" />
<glyph unicode="&#xa8;" horiz-adv-x="526" d="M-49 1253v242h223v-242h-223zM383 1253v242h223v-242h-223z" />
<glyph unicode="&#xa9;" d="M18 887q0 231 149.5 390t375.5 159q229 0 376.5 -161t147.5 -386q0 -231 -147.5 -388t-380.5 -157q-219 0 -370 158t-151 385zM135 889q0 -178 116 -302t290 -124q178 0 294.5 124t116.5 302t-117.5 304t-291.5 126t-291 -126t-117 -304zM287 897q0 156 61.5 231.5 t198.5 75.5q41 0 80 -3t57 -5l18 -4l-2 -186q-61 12 -153 12q-78 0 -78 -121q0 -137 78 -137l153 10v-182q-59 -16 -153 -17q-139 0 -199.5 77t-60.5 249z" />
<glyph unicode="&#xaa;" horiz-adv-x="1060" d="M283 954q0 143 153 156l209 14v47q0 66 -24.5 89.5t-81.5 23.5l-213 -14l-4 63q141 16 217 17q88 0 129 -42t41 -139v-274q12 -41 75 -47l-4 -57q-66 2 -110 45q-129 -45 -244 -45q-63 0 -103 44.5t-40 118.5zM350 950q0 -94 82 -94q41 0 94.5 8t85.5 17l33 10v174 l-199 -12q-51 -4 -73.5 -28t-22.5 -75z" />
<glyph unicode="&#xab;" horiz-adv-x="1314" d="M184 414v172l434 321v-237l-233 -166l233 -189v-237zM733 414v172l434 321v-237l-235 -166l235 -189v-237z" />
<glyph unicode="&#xac;" d="M106 512v227h869v-534h-227v307h-642z" />
<glyph unicode="&#xae;" d="M-12 889q0 242 150.5 407.5t404.5 165.5t409.5 -164.5t155.5 -408.5q0 -240 -156.5 -408t-408.5 -168q-254 0 -404.5 166t-150.5 410zM102 889q0 -188 128 -325.5t312.5 -137.5t313.5 136t129 327q0 195 -129 329t-313 134q-188 0 -314.5 -133t-126.5 -330zM297 565v645 h244q123 0 186.5 -47t63.5 -157q0 -80 -18.5 -123t-67.5 -76l100 -242h-184l-80 219h-74v-219h-170zM465 913h78q82 0 82 82q0 84 -90 84h-70v-166z" />
<glyph unicode="&#xaf;" horiz-adv-x="526" d="M-49 1282v203h645v-203h-645z" />
<glyph unicode="&#xb0;" d="M199 1155q0 133 84 217t217 84t217 -84t84 -217t-84 -216t-217 -83t-217 83t-84 216zM336 1155q0 -74 45 -120t118.5 -46t121 46t47.5 120t-47.5 121t-121 47t-118.5 -47t-45 -121z" />
<glyph unicode="&#xb1;" d="M49 82v213h998v-213h-998zM49 627v213h389v250h213v-250h396v-213h-396v-240h-213v240h-389z" />
<glyph unicode="&#xb2;" horiz-adv-x="542" d="M35 979v162l160 139q96 82 96 133q0 45 -84 45l-160 -14l-8 176q141 20 231 20q119 0 169 -46t50 -152q0 -68 -27.5 -116t-90.5 -99l-92 -78h215v-170h-459z" />
<glyph unicode="&#xb3;" horiz-adv-x="542" d="M45 975l10 166q123 -14 197 -14.5t74 51.5q0 47 -68 47h-135v153h133q23 0 38 13.5t15 35.5q0 43 -67 43l-179 -12l-10 162q133 20 217 20q238 0 238 -180q0 -104 -68 -145q80 -33 80 -152q0 -102 -61.5 -154.5t-171.5 -52.5q-45 0 -105.5 5.5t-99.5 9.5z" />
<glyph unicode="&#xb4;" horiz-adv-x="548" d="M14 1380l500 191l80 -221l-508 -164z" />
<glyph unicode="&#xb5;" d="M127 -463v1487h233v-578q2 -150 33 -204t135 -54l226 48v786h233v-1022h-233v51q-160 -74 -271 -74q-78 0 -123 25v-465h-233z" />
<glyph unicode="&#x3bc;" d="M127 -463v1487h233v-578q2 -150 33 -204t135 -54l226 48v786h233v-1022h-233v51q-160 -74 -271 -74q-78 0 -123 25v-465h-233z" />
<glyph unicode="&#xb6;" d="M16 1036q0 174 107.5 286t277.5 112h676v-183h-98v-1251h-203v1251h-164v-1251h-200v645h-15q-170 0 -275.5 108.5t-105.5 282.5z" />
<glyph unicode="&#xb7;" horiz-adv-x="507" d="M115 451v305h252v-305h-252z" />
<glyph unicode="&#xb8;" horiz-adv-x="1705" d="M758 -457l8 140q70 -4 111 -5q82 0 81 62q0 53 -81 53h-62v209h100v-86q129 -2 186.5 -38t57.5 -138q0 -109 -56 -163t-159 -54q-39 0 -86 5t-74 9z" />
<glyph unicode="&#xb9;" horiz-adv-x="542" d="M43 1468l213 150h172v-639h-188v432l-111 -76z" />
<glyph unicode="&#xba;" horiz-adv-x="1077" d="M295 1073q0 276 235 277q119 0 175.5 -66.5t56.5 -210.5q0 -283 -232 -282q-235 -1 -235 282zM365 1073q0 -117 38.5 -167t126.5 -50t125 50t37 167t-37 164t-125 47t-126.5 -48t-38.5 -163z" />
<glyph unicode="&#xbb;" horiz-adv-x="1314" d="M147 78v237l236 189l-236 166v237l435 -321v-172zM696 78v237l234 189l-234 166v237l434 -321v-172z" />
<glyph unicode="&#xbf;" horiz-adv-x="790" d="M12 -49q0 100 38 182t93.5 132t109.5 91t92 82t38 84v78h252v-84q0 -76 -38 -137.5t-92 -103.5l-108 -81q-53 -40 -91 -94.5t-38 -119.5q0 -94 41 -133.5t164 -39.5l309 41l29 -229q-238 -57 -348 -57q-238 0 -344.5 88t-106.5 301zM383 717v305h252v-305h-252z" />
<glyph unicode="&#xc0;" horiz-adv-x="1236" d="M53 0l338 1417h473l334 -1417h-242l-77 279h-514l-70 -279h-242zM299 1722l78 220l500 -189l-72 -197zM416 510h415l-157 686h-96z" />
<glyph unicode="&#xc1;" horiz-adv-x="1236" d="M53 0l338 1417h473l334 -1417h-242l-77 279h-514l-70 -279h-242zM332 1790l499 190l80 -221l-508 -164zM416 510h415l-157 686h-96z" />
<glyph unicode="&#xc2;" horiz-adv-x="1236" d="M53 0l338 1417h473l334 -1417h-242l-77 279h-514l-70 -279h-242zM260 1606l264 336h189l266 -336h-252l-106 141l-109 -141h-252zM416 510h415l-157 686h-96z" />
<glyph unicode="&#xc3;" horiz-adv-x="1236" d="M53 0l340 1417h471l334 -1417h-242l-77 279h-514l-70 -279h-242zM246 1812q12 14 32.5 35t76 54.5t100.5 33.5q66 0 172 -46t128.5 -46t62.5 20.5t69 41.5l28 20l52 -178q-12 -14 -32 -33.5t-74 -53.5t-99 -34q-55 0 -166 47t-139 47q-25 0 -65 -20.5t-68 -40.5l-27 -23z M416 510h415l-157 686h-96z" />
<glyph unicode="&#xc4;" horiz-adv-x="1236" d="M53 0l340 1417h471l334 -1417h-242l-77 279h-514l-70 -279h-242zM340 1663v242h225v-242h-225zM416 510h415l-157 686h-96zM772 1663v242h223v-242h-223z" />
<glyph unicode="&#xc5;" horiz-adv-x="1236" d="M53 0l324 1362q-35 53 -35 129q0 115 81 179.5t204 64.5t204.5 -64.5t81.5 -179.5q0 -72 -36 -129l321 -1362h-242l-77 279h-514l-70 -279h-242zM416 510h415l-157 686h-96zM524 1491q0 -57 58 -74h90q59 16 59 74q0 37 -28.5 58.5t-75.5 21.5t-75 -21.5t-28 -58.5z" />
<glyph unicode="&#xc6;" horiz-adv-x="1839" d="M92 0l406 1417h1263v-229h-647v-352h524v-230h-524v-377h647v-229h-884v279h-461l-80 -279h-244zM475 510h402l2 678h-211z" />
<glyph unicode="&#xc7;" horiz-adv-x="1099" d="M90 707q0 395 116 564t410 169q80 0 180.5 -13.5t161.5 -27.5l62 -15l-8 -210q-240 31 -363 30q-184 0 -247.5 -104.5t-63.5 -392.5q0 -283 62.5 -388.5t256.5 -105.5q49 0 138.5 8t152.5 17l64 8l6 -217q-223 -47 -383 -52v-61q129 -2 186.5 -38t57.5 -138 q0 -109 -56.5 -163t-158.5 -54q-39 0 -86.5 5t-73.5 9l-27 6l8 140q70 -4 111 -5q82 0 82 62q0 53 -82 53h-61v189q-256 20 -350.5 192.5t-94.5 532.5z" />
<glyph unicode="&#xc8;" horiz-adv-x="1140" d="M158 0v1417h884v-229h-647v-371h525v-225h-525v-363h647v-229h-884zM305 1722l78 220l500 -189l-72 -197z" />
<glyph unicode="&#xc9;" horiz-adv-x="1171" d="M166 0v1417h885v-229h-648v-371h525v-225h-525v-363h648v-229h-885zM332 1790l499 190l80 -221l-508 -164z" />
<glyph unicode="&#xca;" horiz-adv-x="1171" d="M166 0v1417h885v-229h-648v-371h525v-225h-525v-363h648v-229h-885zM274 1606l265 336h188l266 -336h-252l-106 141l-109 -141h-252z" />
<glyph unicode="&#xcb;" horiz-adv-x="1171" d="M166 0v1417h885v-229h-648v-371h525v-225h-525v-363h648v-229h-885zM301 1663v242h223v-242h-223zM733 1663v242h223v-242h-223z" />
<glyph unicode="&#xcc;" horiz-adv-x="548" d="M-63 1722l77 220l500 -189l-72 -197zM154 0v1417h241v-1417h-241z" />
<glyph unicode="&#xcd;" horiz-adv-x="548" d="M0 1769l500 191l78 -221l-506 -164zM154 0v1417h241v-1417h-241z" />
<glyph unicode="&#xce;" horiz-adv-x="548" d="M-102 1618l270 295h213l270 -295h-264l-111 108l-108 -108h-270zM154 0v1417h241v-1417h-241z" />
<glyph unicode="&#xcf;" horiz-adv-x="548" d="M-57 1645v241h223v-241h-223zM154 0v1417h241v-1417h-241zM387 1645v241h223v-241h-223z" />
<glyph unicode="&#xd0;" horiz-adv-x="1292" d="M37 590v229h121v598h477q170 0 282.5 -43t175 -134t87 -211t24.5 -296q0 -184 -23.5 -309t-84 -226.5t-174 -149.5t-287.5 -48h-477v590h-121zM395 229h240q102 0 167.5 36t98.5 108.5t44 154.5t11 205q0 242 -62.5 348.5t-258.5 106.5h-240v-369h281v-229h-281v-361z " />
<glyph unicode="&#xd1;" horiz-adv-x="1406" d="M139 0v1417h389l451 -1118h35v1118h241v-1417h-378l-461 1118h-37v-1118h-240zM324 1812q12 14 32.5 35t75.5 54.5t100 33.5q66 0 172.5 -46t129 -46t62.5 20.5t69 41.5l28 20l51 -178q-12 -14 -31.5 -33.5t-73.5 -53.5t-99 -34q-55 0 -166 47t-139 47q-25 0 -65 -20.5 t-69 -40.5l-26 -23z" />
<glyph unicode="&#xd2;" horiz-adv-x="1343" d="M100 698q0 375 128 558.5t443.5 183.5t443.5 -183.5t128 -558t-127 -548t-444.5 -173.5t-444.5 174t-127 547zM348 698q0 -262 67.5 -375.5t256 -113.5t256 112.5t67.5 377t-68.5 387t-255 122.5t-255 -123t-68.5 -387zM356 1722l78 220l500 -189l-72 -197z" />
<glyph unicode="&#xd3;" horiz-adv-x="1343" d="M100 698q0 375 128 558.5t443.5 183.5t443.5 -183.5t128 -558t-127 -548t-444.5 -173.5t-444.5 174t-127 547zM348 698q0 -262 67.5 -375.5t256 -113.5t256 112.5t67.5 377t-68.5 387t-255 122.5t-255 -123t-68.5 -387zM358 1790l500 190l80 -221l-508 -164z" />
<glyph unicode="&#xd4;" horiz-adv-x="1343" d="M100 698q0 375 128 558.5t443.5 183.5t443.5 -183.5t128 -558t-127 -548t-444.5 -173.5t-444.5 174t-127 547zM309 1606l264 336h189l266 -336h-252l-106 141l-109 -141h-252zM348 698q0 -262 67.5 -375.5t256 -113.5t256 112.5t67.5 377t-68.5 387t-255 122.5t-255 -123 t-68.5 -387z" />
<glyph unicode="&#xd5;" horiz-adv-x="1343" d="M100 698q0 375 128 558.5t443.5 183.5t443.5 -183.5t128 -558t-127 -548t-444.5 -173.5t-444.5 174t-127 547zM295 1812q12 14 32.5 35t76 54.5t100.5 33.5q66 0 172 -46t128.5 -46t62.5 20.5t69 41.5l29 20l51 -178q-12 -14 -31.5 -33.5t-74 -53.5t-99.5 -34 q-55 0 -165.5 47t-139.5 47q-25 0 -65 -20.5t-68 -40.5l-27 -23zM348 698q0 -262 67.5 -375.5t256 -113.5t256 112.5t67.5 377t-68.5 387t-255 122.5t-255 -123t-68.5 -387z" />
<glyph unicode="&#xd6;" horiz-adv-x="1343" d="M100 698q0 375 128 558.5t443.5 183.5t443.5 -183.5t128 -558t-127 -548t-444.5 -173.5t-444.5 174t-127 547zM334 1663v242h225v-242h-225zM348 698q0 -262 67.5 -375.5t256 -113.5t256 112.5t67.5 377t-68.5 387t-255 122.5t-255 -123t-68.5 -387zM766 1663v242h225 v-242h-225z" />
<glyph unicode="&#xd7;" horiz-adv-x="1210" d="M346 219l365 371l-365 371l152 151l364 -371l367 371l153 -151l-366 -371l366 -371l-153 -149l-367 368l-364 -368z" />
<glyph unicode="&#xd8;" horiz-adv-x="1323" d="M90 698q0 375 128 558.5t444 183.5q109 0 208 -27l115 246l217 -82l-131 -283q162 -174 162 -596q0 -375 -127 -548t-444 -173q-98 0 -195 21l-119 -254l-213 94l125 266q-170 162 -170 594zM338 698q0 -229 45 -331l385 827q-53 14 -106 14q-186 0 -255 -123t-69 -387z M569 217q35 -8 93 -8q188 0 255.5 112.5t67.5 376.5q0 213 -41 326z" />
<glyph unicode="&#xd9;" horiz-adv-x="1308" d="M96 1722l78 220l500 -189l-72 -197zM135 457v960h242v-960q0 -131 70.5 -185.5t203.5 -54.5q135 0 208 55.5t73 184.5v960h242v-960q0 -250 -130.5 -362.5t-392.5 -112.5q-258 0 -387 112.5t-129 362.5z" />
<glyph unicode="&#xda;" horiz-adv-x="1314" d="M143 457v960h242v-960q0 -131 70.5 -185.5t203.5 -54.5q135 0 208 55.5t73 184.5v960h242v-960q0 -250 -130 -362.5t-393 -112.5q-258 0 -387 112.5t-129 362.5zM352 1790l500 190l80 -221l-508 -164z" />
<glyph unicode="&#xdb;" horiz-adv-x="1314" d="M143 457v960h242v-960q0 -131 70.5 -185.5t203.5 -54.5q135 0 208 55.5t73 184.5v960h242v-960q0 -250 -130 -362.5t-393 -112.5q-258 0 -387 112.5t-129 362.5zM303 1606l264 336h189l266 -336h-252l-106 141l-109 -141h-252z" />
<glyph unicode="&#xdc;" horiz-adv-x="1314" d="M143 457v960h242v-960q0 -131 70.5 -185.5t203.5 -54.5q135 0 208 55.5t73 184.5v960h242v-960q0 -250 -130 -362.5t-393 -112.5q-258 0 -387 112.5t-129 362.5zM385 1663v242h223v-242h-223zM817 1663v242h223v-242h-223z" />
<glyph unicode="&#xdd;" horiz-adv-x="1105" d="M2 1417h268l285 -543l283 543h268l-428 -813v-604h-242v606zM215 1790l500 190l80 -221l-508 -164z" />
<glyph unicode="&#xde;" horiz-adv-x="1120" d="M78 0v1417h241v-211h273q485 0 485 -477q0 -244 -124 -378t-361 -134h-273v-217h-241zM319 451h271q121 0 181 72.5t60 205.5q0 127 -59 187.5t-182 60.5h-271v-526z" />
<glyph unicode="&#xdf;" horiz-adv-x="1269" d="M152 0v1085q0 205 108.5 293t339.5 88q238 0 342.5 -70.5t104.5 -238.5q0 -109 -42 -165t-139 -97q-76 -33 -100.5 -50.5t-24.5 -43.5q0 -31 32 -55.5t157 -86.5q150 -74 204 -130t54 -162q0 -221 -106.5 -303t-381.5 -82q-35 0 -91 10t-95 20l-39 11l8 184 q182 -8 217 -8q135 0 190.5 30.5t55.5 104.5q0 37 -38 68.5t-160 89.5q-143 63 -195.5 124.5t-52.5 159.5q0 90 39 142.5t123 89.5q88 37 115.5 64.5t27.5 68.5q0 63 -48 87.5t-157 24.5q-106 0 -160.5 -39.5t-54.5 -138.5v-1075h-233z" />
<glyph unicode="&#xe0;" horiz-adv-x="1089" d="M57 305q0 158 84 228.5t258 82.5l254 21v61q0 59 -33.5 91t-93.5 32q-68 0 -166 -5t-163 -9l-66 -4l-8 198q264 45 416 46q174 0 261 -81t87 -266v-421q2 -53 20.5 -74t63.5 -29l-8 -199q-113 0 -168.5 16.5t-106.5 55.5q-176 -72 -334 -72q-143 0 -220 87t-77 241z M193 1362l73 207l500 -189l-68 -184zM293 311q0 -133 104 -133l256 41v236l-225 -13q-135 -12 -135 -131z" />
<glyph unicode="&#xe1;" horiz-adv-x="1089" d="M57 305q0 158 84 228.5t258 82.5l254 21v61q0 59 -33.5 91t-93.5 32q-68 0 -166 -5t-163 -9l-66 -4l-8 198q264 45 416 46q174 0 261 -81t87 -266v-421q2 -53 20.5 -74t63.5 -29l-8 -199q-113 0 -168.5 16.5t-106.5 55.5q-176 -72 -334 -72q-143 0 -220 87t-77 241z M201 1380l499 191l80 -221l-508 -164zM293 311q0 -133 104 -133l256 41v236l-225 -13q-135 -12 -135 -131z" />
<glyph unicode="&#xe2;" horiz-adv-x="1089" d="M57 305q0 158 84 228.5t258 82.5l254 21v61q0 59 -33.5 91t-93.5 32q-68 0 -166 -5t-163 -9l-66 -4l-8 198q264 45 416 46q174 0 261 -81t87 -266v-421q2 -53 20.5 -74t63.5 -29l-8 -199q-113 0 -168.5 16.5t-106.5 55.5q-176 -72 -334 -72q-143 0 -220 87t-77 241z M139 1196l264 336h189l266 -336h-252l-106 141l-109 -141h-252zM293 311q0 -133 104 -133l256 41v236l-225 -13q-135 -12 -135 -131z" />
<glyph unicode="&#xe3;" horiz-adv-x="1089" d="M57 305q0 158 84 228.5t258 82.5l254 21v61q0 59 -33.5 91t-93.5 32q-68 0 -166 -5t-163 -9l-66 -4l-8 198q264 45 416 46q174 0 261 -81t87 -266v-421q2 -53 20.5 -74t63.5 -29l-8 -199q-113 0 -168.5 16.5t-106.5 55.5q-176 -72 -336 -72q-143 0 -219 87t-76 241z M125 1403q12 14 32.5 34.5t76 54.5t100.5 34q66 0 172 -46t128.5 -46t62.5 20.5t69 40.5l29 21l51 -179q-12 -14 -31.5 -33.5t-74 -53t-99.5 -33.5q-55 0 -165.5 47t-139.5 47q-25 0 -65 -20.5t-66 -41.5l-29 -22zM293 311q0 -133 104 -133l256 41v236l-225 -13 q-135 -12 -135 -131z" />
<glyph unicode="&#xe4;" horiz-adv-x="1089" d="M57 305q0 158 84 228.5t258 82.5l254 21v61q0 59 -33.5 91t-93.5 32q-68 0 -166 -5t-163 -9l-66 -4l-8 198q264 45 416 46q174 0 261 -81t87 -266v-421q2 -53 20.5 -74t63.5 -29l-8 -199q-113 0 -168.5 16.5t-106.5 55.5q-176 -72 -336 -72q-143 0 -219 87t-76 241z M182 1253v242h224v-242h-224zM293 311q0 -133 104 -133l256 41v236l-225 -13q-135 -12 -135 -131zM614 1253v242h224v-242h-224z" />
<glyph unicode="&#xe5;" horiz-adv-x="1089" d="M57 305q0 158 84 228.5t258 82.5l254 21v61q0 59 -33.5 91t-93.5 32q-68 0 -166 -5t-163 -9l-66 -4l-8 198q264 45 416 46q174 0 261 -81t87 -266v-421q2 -53 20.5 -74t63.5 -29l-8 -199q-113 0 -168.5 16.5t-106.5 55.5q-176 -72 -334 -72q-143 0 -220 87t-77 241z M293 311q0 -133 104 -133l256 41v236l-225 -13q-135 -12 -135 -131zM295 1311q0 96 66.5 163.5t164.5 67.5q96 0 163 -67.5t67 -163.5q0 -98 -66.5 -164t-163.5 -66q-98 0 -164.5 66t-66.5 164zM453 1310.5q0 -32.5 21.5 -54t53.5 -21.5q31 0 52.5 21.5t21.5 54t-21.5 54 t-52.5 21.5q-33 0 -54 -21.5t-21 -54z" />
<glyph unicode="&#xe6;" horiz-adv-x="1695" d="M109 305q0 164 88 232.5t272 80.5l236 19v61q0 59 -35 91t-92 32q-68 0 -166.5 -5t-163.5 -9l-66 -6l-8 205q264 41 416 41q186 0 268 -101q102 100 289 101q219 0 326.5 -115t107.5 -352l-16 -168h-627q2 -115 54 -168.5t173 -53.5l379 19l4 -182q-236 -49 -418 -50 q-207 0 -309 103l-53 -25q-174 -78 -365 -78q-143 0 -218.5 86t-75.5 242zM344 311q0 -133 105 -133q47 0 113.5 11.5t104.5 20.5t48 13q-12 104 -13 232l-223 -13q-135 -10 -135 -131zM938 594h412q0 133 -46.5 188.5t-157 55.5t-159.5 -58.5t-49 -185.5z" />
<glyph unicode="&#xe7;" horiz-adv-x="892" d="M82 524.5q0 276.5 101.5 399.5t328.5 123q49 0 127 -9.5t131 -19.5l53 -10l-8 -203q-162 18 -240 18q-154 0 -205 -64.5t-51 -234.5q0 -190 50.5 -257.5t208.5 -67.5l239 18l6 -203q-162 -29 -274 -34v-64q129 -2 186.5 -38t57.5 -138q0 -109 -56.5 -163t-158.5 -54 q-39 0 -86.5 5t-73.5 9l-27 6l8 140q70 -4 111 -5q82 0 82 62q0 53 -82 53h-61v187q-199 14 -283 141t-84 403.5z" />
<glyph unicode="&#xe8;" horiz-adv-x="1021" d="M78 500q0 547 444 547q436 0 436 -467l-16 -168h-629q2 -115 54.5 -168.5t175.5 -53.5l377 19l4 -182q-233 -49 -416 -50q-229 0 -329.5 125.5t-100.5 397.5zM186 1329l74 207l500 -188l-68 -185zM313 594h414q0 133 -47 188.5t-158 55.5q-109 0 -159 -58.5t-50 -185.5z " />
<glyph unicode="&#xe9;" horiz-adv-x="1021" d="M78 500q0 547 444 547q436 0 436 -467l-16 -168h-629q2 -115 54.5 -168.5t175.5 -53.5l377 19l4 -182q-233 -49 -416 -50q-229 0 -329.5 125.5t-100.5 397.5zM254 1380l500 191l80 -221l-508 -164zM313 594h414q0 133 -47 188.5t-158 55.5q-109 0 -159 -58.5t-50 -185.5z " />
<glyph unicode="&#xea;" horiz-adv-x="1021" d="M78 500q0 547 444 547q436 0 436 -467l-16 -168h-629q2 -115 54.5 -168.5t175.5 -53.5l377 19l4 -182q-233 -49 -416 -50q-229 0 -329.5 125.5t-100.5 397.5zM180 1196l264 336h189l266 -336h-252l-106 141l-109 -141h-252zM313 594h414q0 133 -47 188.5t-158 55.5 q-109 0 -159 -58.5t-50 -185.5z" />
<glyph unicode="&#xeb;" horiz-adv-x="1021" d="M78 500q0 547 446 547q219 0 326.5 -115t107.5 -352l-16 -168h-627q2 -115 54.5 -168.5t173.5 -53.5l377 19l4 -182q-233 -49 -416 -50q-229 0 -329.5 125.5t-100.5 397.5zM195 1253v242h223v-242h-223zM313 594h414q0 133 -46 188.5t-156.5 55.5t-160 -57.5 t-51.5 -186.5zM627 1253v242h223v-242h-223z" />
<glyph unicode="&#xec;" horiz-adv-x="534" d="M-35 1362l74 207l500 -189l-68 -184zM156 0v1022h233v-1022h-233z" />
<glyph unicode="&#xed;" horiz-adv-x="534" d="M20 1380l500 191l80 -221l-508 -164zM156 0v1022h233v-1022h-233z" />
<glyph unicode="&#xee;" horiz-adv-x="546" d="M-96 1196l264 336h188l267 -336h-252l-107 141l-108 -141h-252zM156 0v1022h233v-1022h-233z" />
<glyph unicode="&#xef;" horiz-adv-x="534" d="M-63 1253v242h223v-242h-223zM156 0v1022h233v-1022h-233zM367 1253v242h225v-242h-225z" />
<glyph unicode="&#xf0;" d="M57 471q0 193 121 306.5t320 113.5q66 0 137.5 -13.5t109.5 -27.5l39 -14q-10 115 -67.5 190.5t-188.5 128.5l-215 -162l-96 135l115 89q-33 8 -178 34l34 199q215 -27 357 -72l198 152l97 -137l-117 -88q313 -176 313 -590q0 -383 -118.5 -558t-387.5 -175 q-229 0 -351 124.5t-122 364.5zM307 471q0 -272 223 -272q131 0 192.5 101t63.5 331q-127 55 -274 55q-94 0 -149.5 -62.5t-55.5 -152.5z" />
<glyph unicode="&#xf1;" horiz-adv-x="1175" d="M168 0v1022h233v-51q162 76 275 76q205 0 280.5 -120t75.5 -392v-535h-233v532q0 158 -33 226.5t-135 68.5q-41 0 -98.5 -12t-94.5 -24l-37 -11v-780h-233zM233 1403q12 14 33 34.5t76 54.5t100 34q66 0 172.5 -46t129 -46t62.5 20.5t68 40.5l29 21l51 -179 q-12 -14 -31.5 -33.5t-73.5 -53t-99 -33.5q-55 0 -166 47t-140 47q-25 0 -64.5 -20.5t-68.5 -41.5l-26 -22z" />
<glyph unicode="&#xf2;" horiz-adv-x="1083" d="M82 516q0 260 106.5 395.5t354.5 135.5q244 0 351 -136.5t107 -394.5q0 -264 -103 -401.5t-355 -137.5t-356.5 136.5t-104.5 402.5zM258 1362l74 207l499 -189l-67 -184zM319 516q0 -176 46.5 -252t177.5 -76q129 0 175 77t46 251q0 166 -50 242t-171 76 q-127 0 -175.5 -74t-48.5 -244z" />
<glyph unicode="&#xf3;" horiz-adv-x="1083" d="M82 516q0 260 106.5 395.5t354.5 135.5q244 0 351 -136.5t107 -394.5q0 -264 -103 -401.5t-355 -137.5t-356.5 136.5t-104.5 402.5zM229 1380l500 191l80 -221l-508 -164zM319 516q0 -176 46.5 -252t177.5 -76q129 0 175 77t46 251q0 166 -50 242t-171 76 q-127 0 -175.5 -74t-48.5 -244z" />
<glyph unicode="&#xf4;" horiz-adv-x="1083" d="M82 516q0 260 106.5 395.5t354.5 135.5q244 0 351 -136.5t107 -394.5q0 -264 -103 -401.5t-355 -137.5t-356.5 136.5t-104.5 402.5zM172 1196l264 336h189l266 -336h-252l-107 141l-108 -141h-252zM319 516q0 -176 46.5 -252t177.5 -76q129 0 175 77t46 251 q0 166 -50 242t-171 76q-127 0 -175.5 -74t-48.5 -244z" />
<glyph unicode="&#xf5;" horiz-adv-x="1083" d="M82 516q0 260 106.5 395.5t354.5 135.5q244 0 351 -136.5t107 -394.5q0 -264 -103 -401.5t-355 -137.5t-356.5 136.5t-104.5 402.5zM172 1403q12 14 32.5 34.5t76 54.5t100.5 34q66 0 173.5 -46t127.5 -46q23 0 62.5 20.5t68.5 40.5l29 21l51 -179q-12 -14 -31.5 -33.5 t-74 -53t-99.5 -33.5q-55 0 -164.5 47t-138.5 47q-25 0 -64.5 -20.5t-66.5 -41.5l-29 -22zM319 516q0 -176 46.5 -252t177.5 -76q129 0 175 77t46 251q0 166 -50 242t-171 76q-127 0 -175.5 -74t-48.5 -244z" />
<glyph unicode="&#xf6;" horiz-adv-x="1083" d="M82 516q0 260 106.5 395.5t354.5 135.5q244 0 351 -136.5t107 -394.5q0 -264 -103 -401.5t-355 -137.5t-356.5 136.5t-104.5 402.5zM211 1253v242h223v-242h-223zM319 516q0 -176 46.5 -252t177.5 -76q129 0 175 77t46 251q0 166 -50 242t-171 76q-127 0 -175.5 -74 t-48.5 -244zM643 1253v242h223v-242h-223z" />
<glyph unicode="&#xf7;" d="M90 573v232h252v221h354v-221h240v-232h-846zM403 133v248h234v-248h-234z" />
<glyph unicode="&#xf8;" horiz-adv-x="1083" d="M82 516q0 260 106.5 395.5t354.5 135.5q68 0 127 -13l82 209l145 -55l-86 -207q190 -117 190 -465q0 -264 -103 -401.5t-355 -137.5q-76 0 -137 13l-89 -213l-143 53l90 213q-182 117 -182 473zM319 516q0 -180 46 -250l223 563q-29 4 -45 5q-127 0 -175.5 -74 t-48.5 -244zM483 193q37 -4 60 -5q129 0 175 77t46 251q0 170 -51 244z" />
<glyph unicode="&#xf9;" horiz-adv-x="1146" d="M137 487v535h234v-533q0 -178 28.5 -239.5t139.5 -61.5q41 0 96 12.5t90 24.5l37 11v786h233v-1022h-233v51q-160 -74 -270 -74q-213 0 -284 113.5t-71 396.5zM201 1350l86 219l497 -191l-82 -211z" />
<glyph unicode="&#xfa;" horiz-adv-x="1146" d="M137 487v535h234v-533q0 -178 28.5 -239.5t139.5 -61.5q41 0 96 12.5t90 24.5l37 11v786h233v-1022h-233v51q-160 -74 -270 -74q-213 0 -284 113.5t-71 396.5zM258 1380l500 191l80 -221l-508 -164z" />
<glyph unicode="&#xfb;" horiz-adv-x="1146" d="M137 487v535h234v-533q0 -178 28.5 -239.5t139.5 -61.5q41 0 96 12.5t90 24.5l37 11v786h233v-1022h-233v51q-160 -74 -270 -74q-213 0 -284 113.5t-71 396.5zM168 1196l264 336h189l266 -336h-252l-107 141l-108 -141h-252z" />
<glyph unicode="&#xfc;" horiz-adv-x="1146" d="M137 487v535h234v-533q0 -178 28.5 -239.5t139.5 -61.5q41 0 96 12.5t90 24.5l37 11v786h233v-1022h-233v51q-160 -74 -270 -74q-213 0 -284 113.5t-71 396.5zM248 1253v242h223v-242h-223zM680 1253v242h223v-242h-223z" />
<glyph unicode="&#xfd;" horiz-adv-x="983" d="M10 1022h232l211 -795h53l211 795h231l-381 -1458h-231l113 436h-173zM231 1380l500 191l80 -221l-508 -164z" />
<glyph unicode="&#xfe;" horiz-adv-x="1101" d="M178 -438v1884h234v-455q139 55 247 56q211 0 305.5 -120t94.5 -403q0 -313 -111.5 -430t-390.5 -117q-23 0 -79 3.5t-66 3.5v-422h-234zM412 199q106 -10 145 -11q158 0 211 74t53 262q0 166 -46 235.5t-146 69.5q-41 0 -95.5 -7t-87.5 -15l-34 -6v-602z" />
<glyph unicode="&#xff;" horiz-adv-x="991" d="M27 1022h231l211 -795h53l211 795h232l-381 -1458h-232l113 436h-172zM176 1253v242h223v-242h-223zM608 1253v242h223v-242h-223z" />
<glyph unicode="&#x100;" horiz-adv-x="1239" d="M47 0l338 1417h473l334 -1417h-242l-78 279h-514l-69 -279h-242zM268 1638v203h686v-203h-686zM410 510h415l-157 686h-97z" />
<glyph unicode="&#x101;" horiz-adv-x="1077" d="M88 305q0 158 84 228.5t258 82.5l254 21v61q0 59 -34 91t-93 32q-68 0 -166 -5t-164 -9l-65 -4l-8 198q264 45 415 46q174 0 261.5 -81t87.5 -266v-421q2 -53 20 -74t63 -29l-8 -199q-113 0 -168 16.5t-106 55.5q-176 -72 -334 -72q-143 0 -220 87t-77 241zM211 1282v203 h645v-203h-645zM324 311q0 -133 104 -133l256 41v236l-225 -13q-135 -12 -135 -131z" />
<glyph unicode="&#x102;" horiz-adv-x="1239" d="M47 0l338 1417h473l334 -1417h-242l-78 279h-514l-69 -279h-242zM258 1903h242q14 -100 118 -101q51 0 84 26.5t37 74.5h242q-12 -133 -104.5 -215t-258 -82t-257 81t-103.5 216zM410 510h415l-157 686h-97z" />
<glyph unicode="&#x103;" horiz-adv-x="1077" d="M88 305q0 158 84 228.5t258 82.5l254 21v61q0 59 -34 91t-93 32q-68 0 -166 -5t-164 -9l-65 -4l-8 198q264 45 415 46q174 0 261.5 -81t87.5 -266v-421q2 -53 20 -74t63 -29l-8 -199q-113 0 -168 16.5t-106 55.5q-176 -72 -334 -72q-143 0 -220 87t-77 241zM164 1522h242 q12 -111 132.5 -111t133.5 111h241q-12 -145 -108 -232.5t-266 -87.5t-266.5 87.5t-108.5 232.5zM324 311q0 -133 104 -133l256 41v236l-225 -13q-135 -12 -135 -131z" />
<glyph unicode="&#x104;" horiz-adv-x="1239" d="M47 0l338 1417h473l334 -1417h-10q-25 -18 -71 -73.5t-46 -98.5q0 -27 14.5 -44t38.5 -17l84 8l23 -189q-111 -23 -193 -22q-92 0 -151.5 51t-59.5 139q0 131 140 246h-11l-78 279h-514l-69 -279h-242zM410 510h415l-157 686h-97z" />
<glyph unicode="&#x105;" horiz-adv-x="1077" d="M88 305q0 158 84 228.5t258 82.5l254 21v61q0 59 -34 91t-93 32q-68 0 -166 -5t-164 -9l-65 -4l-8 198q264 45 415 46q174 0 261.5 -81t87.5 -266v-421q2 -53 20 -74t63 -29l-8 -199q-41 0 -57 3q-94 -94 -94 -152q0 -27 14 -44t39 -17l84 8l22 -189q-111 -23 -192 -22 q-92 0 -151.5 51t-59.5 139q0 68 44 135.5t72.5 92t47.5 36.5q-20 12 -43 31q-176 -72 -334 -72q-143 0 -220 87t-77 241zM324 311q0 -133 104 -133l256 41v236l-225 -13q-135 -12 -135 -131z" />
<glyph unicode="&#x106;" horiz-adv-x="1087" d="M90 707q0 395 116 564t410 169q80 0 180.5 -13.5t161.5 -27.5l62 -15l-8 -210q-240 31 -363 30q-184 0 -247.5 -104.5t-63.5 -392.5q0 -283 62.5 -388.5t256.5 -105.5q49 0 138.5 8t152.5 17l64 8l6 -217q-240 -51 -402 -52q-307 0 -416.5 172.5t-109.5 557.5zM311 1769 l500 191l78 -221l-506 -164z" />
<glyph unicode="&#x107;" horiz-adv-x="892" d="M82 524q0 276 101.5 399.5t328.5 123.5q49 0 127 -9.5t131 -19.5l53 -10l-8 -203q-162 18 -240 18q-154 0 -205 -64.5t-51 -234.5q0 -190 50.5 -257.5t208.5 -67.5l239 18l6 -203q-209 -37 -317 -37q-231 0 -327.5 126t-96.5 421zM201 1380l499 191l80 -221l-508 -164z " />
<glyph unicode="&#x108;" horiz-adv-x="1087" d="M90 707q0 395 116 564t410 169q80 0 180.5 -13.5t161.5 -27.5l62 -15l-8 -210q-240 31 -363 30q-184 0 -247.5 -104.5t-63.5 -392.5q0 -283 62.5 -388.5t256.5 -105.5q49 0 138.5 8t152.5 17l64 8l6 -217q-240 -51 -402 -52q-307 0 -416.5 172.5t-109.5 557.5zM231 1616 l271 295h213l270 -295h-264l-111 108l-108 -108h-271z" />
<glyph unicode="&#x109;" horiz-adv-x="892" d="M82 524q0 276 101.5 399.5t328.5 123.5q49 0 127 -9.5t131 -19.5l53 -10l-8 -203q-162 18 -240 18q-154 0 -205 -64.5t-51 -234.5q0 -190 50.5 -257.5t208.5 -67.5l239 18l6 -203q-209 -37 -317 -37q-231 0 -327.5 126t-96.5 421zM98 1196l264 336h189l266 -336h-252 l-106 141l-109 -141h-252z" />
<glyph unicode="&#x10a;" horiz-adv-x="1087" d="M90 707q0 395 116 564t410 169q80 0 180.5 -13.5t161.5 -27.5l62 -15l-8 -210q-240 31 -363 30q-184 0 -247.5 -104.5t-63.5 -392.5q0 -283 62.5 -388.5t256.5 -105.5q49 0 138.5 8t152.5 17l64 8l6 -217q-240 -51 -402 -52q-307 0 -416.5 172.5t-109.5 557.5zM483 1620 v244h234v-244h-234z" />
<glyph unicode="&#x10b;" horiz-adv-x="892" d="M82 524q0 276 101.5 399.5t328.5 123.5q49 0 127 -9.5t131 -19.5l53 -10l-8 -203q-162 18 -240 18q-154 0 -205 -64.5t-51 -234.5q0 -190 50.5 -257.5t208.5 -67.5l239 18l6 -203q-209 -37 -317 -37q-231 0 -327.5 126t-96.5 421zM371 1176v243h233v-243h-233z" />
<glyph unicode="&#x10c;" horiz-adv-x="1087" d="M90 707q0 395 116 564t410 169q80 0 180.5 -13.5t161.5 -27.5l62 -15l-8 -210q-240 31 -363 30q-184 0 -247.5 -104.5t-63.5 -392.5q0 -283 62.5 -388.5t256.5 -105.5q49 0 138.5 8t152.5 17l64 8l6 -217q-240 -51 -402 -52q-307 0 -416.5 172.5t-109.5 557.5zM240 1907 h268l110 -115l109 115h264l-268 -295h-211z" />
<glyph unicode="&#x10d;" horiz-adv-x="892" d="M82 524q0 276 101.5 399.5t328.5 123.5q49 0 127 -9.5t131 -19.5l53 -10l-8 -203q-162 18 -240 18q-154 0 -205 -64.5t-51 -234.5q0 -190 50.5 -257.5t208.5 -67.5l239 18l6 -203q-209 -37 -317 -37q-231 0 -327.5 126t-96.5 421zM133 1532h254l107 -139l104 139h254 l-262 -336h-197z" />
<glyph unicode="&#x10e;" horiz-adv-x="1292" d="M158 0v1417h477q170 0 282.5 -43t175 -134t87 -211t24.5 -296q0 -184 -23.5 -309t-84 -226.5t-174 -149.5t-287.5 -48h-477zM240 1907h268l110 -115l109 115h264l-268 -295h-211zM395 229h240q102 0 167.5 36t98.5 108.5t44 154.5t11 205q0 242 -62.5 348.5t-258.5 106.5 h-240v-959z" />
<glyph unicode="&#x10f;" horiz-adv-x="1552" d="M82 518q0 274 103.5 401.5t322.5 127.5q96 0 229 -27v414h236v-1434h-236v49q-145 -72 -266 -72q-205 0 -297 126t-92 415zM319 516q0 -178 45.5 -247.5t143.5 -73.5q100 2 229 45v575q-2 0 -37.5 4l-86 9.5t-89.5 5.5q-106 0 -155.5 -75t-49.5 -243zM1163 905v514h226 v-514h-226z" />
<glyph unicode="&#x110;" horiz-adv-x="1292" d="M37 590v231h121v596h477q170 0 282.5 -43t175 -134t87 -211t24.5 -296q0 -184 -23.5 -309t-84 -226.5t-174 -149.5t-287.5 -48h-477v590h-121zM395 229h240q102 0 167.5 36t98.5 108.5t44 154.5t11 205q0 242 -62.5 348.5t-258.5 106.5h-240v-367h285v-231h-285v-361z " />
<glyph unicode="&#x111;" horiz-adv-x="1114" d="M82 518q0 274 103.5 401.5t322.5 127.5q96 0 229 -27v254h-436v203h645v-43h27v-1434h-236v49q-145 -72 -266 -72q-205 0 -297 126t-92 415zM319 516q0 -178 45.5 -247.5t143.5 -73.5q100 2 229 45v575q-2 0 -37.5 4l-86 9.5t-89.5 5.5q-106 0 -155.5 -75t-49.5 -243z " />
<glyph unicode="&#x112;" horiz-adv-x="1140" d="M158 0v1417h884v-229h-647v-371h525v-225h-525v-363h647v-229h-884zM252 1655v203h686v-203h-686z" />
<glyph unicode="&#x113;" horiz-adv-x="1038" d="M82 500q0 547 444 547q436 0 437 -467l-17 -168h-629q2 -115 54.5 -168.5t175.5 -53.5l377 19l4 -182q-233 -49 -416 -50q-229 0 -329.5 125.5t-100.5 397.5zM201 1282v203h645v-203h-645zM317 594h414q0 133 -47 188.5t-158 55.5q-109 0 -159 -58.5t-50 -185.5z" />
<glyph unicode="&#x114;" horiz-adv-x="1140" d="M158 0v1417h884v-229h-647v-371h525v-225h-525v-363h647v-229h-884zM254 1903h242q14 -100 118 -101q51 0 84 26.5t37 74.5h242q-12 -133 -104.5 -215t-258 -82t-257 81t-103.5 216z" />
<glyph unicode="&#x115;" horiz-adv-x="1038" d="M82 500q0 547 444 547q436 0 437 -467l-17 -168h-629q2 -115 54.5 -168.5t175.5 -53.5l377 19l4 -182q-233 -49 -416 -50q-229 0 -329.5 125.5t-100.5 397.5zM147 1522h242q12 -111 133 -111t131 111h244q-12 -145 -108.5 -232.5t-266.5 -87.5t-266.5 87.5t-108.5 232.5z M317 594h414q0 133 -47 188.5t-158 55.5q-109 0 -159 -58.5t-50 -185.5z" />
<glyph unicode="&#x116;" horiz-adv-x="1140" d="M158 0v1417h884v-229h-647v-371h525v-225h-525v-363h647v-229h-884zM494 1620v244h233v-244h-233z" />
<glyph unicode="&#x117;" horiz-adv-x="1038" d="M82 500q0 547 444 547q436 0 437 -467l-17 -168h-629q2 -115 54.5 -168.5t175.5 -53.5l377 19l4 -182q-233 -49 -416 -50q-229 0 -329.5 125.5t-100.5 397.5zM317 594h414q0 133 -47 188.5t-158 55.5q-109 0 -159 -58.5t-50 -185.5zM401 1176v243h234v-243h-234z" />
<glyph unicode="&#x118;" horiz-adv-x="1140" d="M158 0v1417h884v-229h-647v-371h525v-225h-525v-363h647v-229h-38q-25 -18 -71 -73.5t-46 -98.5q0 -27 14 -44t39 -17l84 8l23 -189q-111 -23 -193 -22q-92 0 -151.5 51t-59.5 139q0 131 139 246h-624z" />
<glyph unicode="&#x119;" horiz-adv-x="1038" d="M82 500q0 547 444 547q436 0 437 -467l-17 -168h-629q2 -115 54.5 -168.5t175.5 -53.5l377 19l4 -182q-37 -8 -84 -17h6q-119 -104 -119 -174q0 -27 14.5 -44t38.5 -17l84 8l23 -189q-111 -23 -193 -22q-92 0 -151.5 51t-59.5 139q0 111 109 220q-57 -4 -84 -5 q-229 0 -329.5 125.5t-100.5 397.5zM317 594h414q0 133 -47 188.5t-158 55.5q-109 0 -159 -58.5t-50 -185.5z" />
<glyph unicode="&#x11a;" horiz-adv-x="1140" d="M158 0v1417h884v-229h-647v-371h525v-225h-525v-363h647v-229h-884zM276 1935h269l110 -114l109 114h264l-268 -295h-211z" />
<glyph unicode="&#x11b;" horiz-adv-x="1038" d="M82 500q0 547 444 547q436 0 437 -467l-17 -168h-629q2 -115 54.5 -168.5t175.5 -53.5l377 19l4 -182q-233 -49 -416 -50q-229 0 -329.5 125.5t-100.5 397.5zM160 1532h254l106 -139l105 139h254l-263 -336h-196zM317 594h414q0 133 -47 188.5t-158 55.5 q-109 0 -159 -58.5t-50 -185.5z" />
<glyph unicode="&#x11c;" horiz-adv-x="1226" d="M90 711q0 383 125 556t430 173q215 0 477 -58l-6 -208q-250 33 -436 32q-201 0 -271.5 -105.5t-70.5 -390t66.5 -392t269.5 -107.5q27 0 58.5 1t57 3t47.5 5l35 5h13v301h-162v215h399v-716q-291 -47 -469 -48q-315 0 -439 180.5t-124 553.5zM272 1616l271 295h213 l270 -295h-264l-111 108l-108 -108h-271z" />
<glyph unicode="&#x11d;" horiz-adv-x="1087" d="M80 -182q0 76 36 132t115 118q-68 45 -67 149q0 47 76 162q-147 92 -148 307q0 184 112.5 271t301.5 87q41 0 93 -6t85 -14l31 -6l311 6v-190h-147q43 -59 43 -148q0 -203 -100.5 -279.5t-319.5 -76.5q-49 0 -90 8q-25 -66 -25 -92q0 -47 37 -61.5t178 -14.5 q248 0 339 -65.5t91 -241.5q0 -182 -130 -268.5t-347 -86.5q-246 0 -360.5 67t-114.5 243zM184 1196l265 336h188l266 -336h-252l-106 141l-109 -141h-252zM311 -158q0 -66 56.5 -94.5t189.5 -28.5q238 0 238 131q0 76 -41 95.5t-170 21.5l-199 13q-74 -66 -74 -138z M328 686q0 -84 39 -122t135 -38q100 0 144 36t44 124t-42 123t-144 35q-94 0 -135 -36t-41 -122z" />
<glyph unicode="&#x11e;" horiz-adv-x="1226" d="M90 711q0 383 125 556t430 173q215 0 477 -58l-6 -208q-250 33 -436 32q-201 0 -271.5 -105.5t-70.5 -390t66.5 -392t269.5 -107.5q27 0 58.5 1t57 3t47.5 5l35 5h13v301h-162v215h399v-716q-291 -47 -469 -48q-315 0 -439 180.5t-124 553.5zM293 1903h242 q14 -100 118 -101q51 0 84 26.5t37 74.5h242q-12 -133 -104.5 -215t-258.5 -82q-164 0 -256 82t-104 215z" />
<glyph unicode="&#x11f;" horiz-adv-x="1087" d="M80 -182q0 76 36 132t115 118q-68 45 -67 149q0 47 76 162q-147 92 -148 307q0 184 112.5 271t301.5 87q41 0 93 -6t85 -14l31 -6l311 6v-190h-147q43 -59 43 -148q0 -203 -100.5 -279.5t-319.5 -76.5q-49 0 -90 8q-25 -66 -25 -92q0 -47 37 -61.5t178 -14.5 q248 0 339 -65.5t91 -241.5q0 -182 -130 -268.5t-347 -86.5q-246 0 -360.5 67t-114.5 243zM170 1522h242q12 -111 133 -111t131 111h242q-12 -145 -107.5 -232.5t-265.5 -87.5q-172 0 -267.5 87.5t-107.5 232.5zM311 -158q0 -66 56.5 -94.5t189.5 -28.5q238 0 238 131 q0 76 -41 95.5t-170 21.5l-199 13q-74 -66 -74 -138zM328 686q0 -84 39 -122t135 -38q100 0 144 36t44 124t-42 123t-144 35q-94 0 -135 -36t-41 -122z" />
<glyph unicode="&#x120;" horiz-adv-x="1226" d="M90 711q0 383 125 556t430 173q215 0 477 -58l-6 -208q-250 33 -436 32q-201 0 -271.5 -105.5t-70.5 -390t66.5 -392t269.5 -107.5q27 0 58.5 1t57 3t47.5 5l35 5h13v301h-162v215h399v-716q-291 -47 -469 -48q-315 0 -439 180.5t-124 553.5zM512 1636v244h233v-244h-233 z" />
<glyph unicode="&#x121;" horiz-adv-x="1087" d="M80 -182q0 76 36 132t115 118q-68 45 -67 149q0 47 76 162q-147 92 -148 307q0 184 112.5 271t301.5 87q41 0 93 -6t85 -14l31 -6l311 6v-190h-147q43 -59 43 -148q0 -203 -100.5 -279.5t-319.5 -76.5q-49 0 -90 8q-25 -66 -25 -92q0 -47 37 -61.5t178 -14.5 q248 0 339 -65.5t91 -241.5q0 -182 -130 -268.5t-347 -86.5q-246 0 -360.5 67t-114.5 243zM311 -158q0 -66 56.5 -94.5t189.5 -28.5q238 0 238 131q0 76 -41 95.5t-170 21.5l-199 13q-74 -66 -74 -138zM328 686q0 -84 39 -122t135 -38q100 0 144 36t44 124t-42 123t-144 35 q-94 0 -135 -36t-41 -122zM426 1176v243h236v-243h-236z" />
<glyph unicode="&#x122;" horiz-adv-x="1226" d="M90 711q0 383 125 556t430 173q215 0 477 -58l-6 -208q-250 33 -436 32q-201 0 -271.5 -105.5t-70.5 -390t66.5 -392t269.5 -107.5q27 0 58.5 1t57 3t47.5 5l35 5h13v301h-162v215h399v-716q-291 -47 -469 -48q-315 0 -439 180.5t-124 553.5zM451 -618l92 460h227 l-108 -460h-211z" />
<glyph unicode="&#x123;" horiz-adv-x="1087" d="M80 -182q0 76 36 132t115 118q-68 45 -67 149q0 47 76 162q-147 92 -148 307q0 184 112.5 271t301.5 87q41 0 93 -6t85 -14l31 -6l311 6v-190h-147q43 -59 43 -148q0 -203 -100.5 -279.5t-319.5 -76.5q-49 0 -90 8q-25 -66 -25 -92q0 -47 37 -61.5t178 -14.5 q248 0 339 -65.5t91 -241.5q0 -182 -130 -268.5t-347 -86.5q-246 0 -360.5 67t-114.5 243zM311 -158q0 -66 56.5 -94.5t189.5 -28.5q238 0 238 131q0 76 -41 95.5t-170 21.5l-199 13q-74 -66 -74 -138zM328 686q0 -84 39 -122t135 -38q100 0 144 36t44 124t-42 123t-144 35 q-94 0 -135 -36t-41 -122zM358 1198l111 461h209l-90 -461h-230z" />
<glyph unicode="&#x124;" horiz-adv-x="1372" d="M158 0v1417h239v-581h586v581h242v-1417h-242v604h-586v-604h-239zM315 1606l271 295h213l270 -295h-264l-111 108l-108 -108h-271z" />
<glyph unicode="&#x125;" horiz-adv-x="1150" d="M152 0v1454h233v-467q162 59 274 60q205 0 281 -120t76 -390v-537h-236v535q0 158 -32.5 225t-133.5 67q-41 0 -98 -8t-94 -16l-37 -10v-793h-233zM215 1552l264 336h189l266 -336h-252l-107 142l-108 -142h-252z" />
<glyph unicode="&#x126;" horiz-adv-x="1372" d="M27 1010v202h131v205h239v-205h586v205h242v-205h145v-202h-145v-1010h-242v604h-586v-604h-239v1010h-131zM397 836h586v174h-586v-174z" />
<glyph unicode="&#x127;" horiz-adv-x="1150" d="M41 1122v203h111v129h233v-129h301v-203h-301v-135q162 59 274 60q205 0 281 -120t76 -390v-537h-236v535q0 158 -32.5 225t-133.5 67q-41 0 -98 -8t-94 -16l-37 -10v-793h-233v1122h-111z" />
<glyph unicode="&#x128;" horiz-adv-x="548" d="M-106 1778q12 14 33.5 35.5t77.5 56.5t101 35q66 0 192 -48.5t146 -48.5q23 0 64 21.5t70 42.5l30 22l54 -180q-12 -14 -33 -34.5t-76 -55.5t-100 -35q-57 0 -185.5 49.5t-156.5 49.5q-25 0 -66 -23t-70 -43l-28 -23zM154 0v1417h241v-1417h-241z" />
<glyph unicode="&#x129;" horiz-adv-x="546" d="M-100 1403q12 14 32.5 34.5t75.5 54.5t101 34q66 0 173 -46t128 -46q23 0 62.5 20.5t68.5 40.5l28 21l52 -179q-12 -14 -32 -33.5t-74 -53t-99 -33.5q-55 0 -165 47t-138 47q-25 0 -65 -20.5t-68 -41.5l-27 -22zM156 0v1022h233v-1022h-233z" />
<glyph unicode="&#x12a;" horiz-adv-x="548" d="M-68 1677v203h686v-203h-686zM154 0v1417h241v-1417h-241z" />
<glyph unicode="&#x12b;" horiz-adv-x="546" d="M-49 1282v203h645v-203h-645zM156 0v1022h233v-1022h-233z" />
<glyph unicode="&#x12c;" horiz-adv-x="548" d="M-88 1903h244q14 -100 118 -101q51 0 84 26.5t37 74.5h242q-12 -133 -105.5 -215t-257.5 -82q-166 0 -258 82t-104 215zM154 0v1417h241v-1417h-241z" />
<glyph unicode="&#x12d;" horiz-adv-x="546" d="M-100 1522h241q12 -111 131 -111q123 0 134 111h241q-12 -145 -107.5 -232.5t-267.5 -87.5q-170 0 -265 87.5t-107 232.5zM156 0v1022h233v-1022h-233z" />
<glyph unicode="&#x12e;" horiz-adv-x="548" d="M33 -246q0 131 139 246h-18v1417h241v-1417h-2q-25 -18 -71 -73.5t-46 -98.5q0 -27 14.5 -44t39.5 -17l84 8l22 -189q-111 -23 -192 -22q-92 0 -151.5 51t-59.5 139z" />
<glyph unicode="&#x12f;" horiz-adv-x="526" d="M-995 0v1022h233v-1022h-233zM-995 1188v248h233v-248h-233zM18 -246q0 133 150 254l16 12l197 -18q-119 -104 -119 -174q0 -27 14.5 -44t38.5 -17l84 8l23 -189q-111 -23 -193 -22q-92 0 -151.5 51t-59.5 139z" />
<glyph unicode="&#x130;" horiz-adv-x="548" d="M154 0v1417h241v-1417h-241zM158 1620v244h233v-244h-233z" />
<glyph unicode="&#x131;" horiz-adv-x="534" d="M156 0v1022h233v-1022h-233z" />
<glyph unicode="&#x134;" horiz-adv-x="638" d="M-43 1606l270 295h213l271 -295h-265l-110 108l-109 -108h-270zM63 80q100 0 140.5 33.5t40.5 134.5v1169h239q0 -217 1 -591.5t1 -594.5q0 -225 -94 -300.5t-328 -75.5v225z" />
<glyph unicode="&#x135;" horiz-adv-x="538" d="M-74 1196l264 336h189l266 -336h-252l-106 141l-109 -141h-252zM-68 -301q145 86 186.5 139t41.5 174v1010h233v-1012q0 -203 -70.5 -300t-285.5 -206z" />
<glyph unicode="&#x136;" horiz-adv-x="1216" d="M158 0v1417h239v-622l201 16l274 606h277l-336 -706l350 -711h-280l-281 580l-205 -17v-563h-239zM426 -618l92 460h227l-108 -460h-211z" />
<glyph unicode="&#x137;" horiz-adv-x="1046" d="M152 0v1446h233v-819l123 16l235 379h263l-289 -479l301 -543h-264l-242 414l-127 -17v-397h-233zM360 -618l93 460h227l-109 -460h-211z" />
<glyph unicode="&#x139;" horiz-adv-x="1011" d="M158 0v1417h239v-1186h549v-231h-788zM223 1769l500 191l78 -221l-506 -164z" />
<glyph unicode="&#x13a;" horiz-adv-x="530" d="M-23 1806l500 191l80 -221l-508 -164zM150 0v1446h233v-1446h-233z" />
<glyph unicode="&#x13b;" horiz-adv-x="1015" d="M158 0v1417h239v-1186h549v-231h-788zM346 -618l92 460h228l-109 -460h-211z" />
<glyph unicode="&#x13c;" horiz-adv-x="530" d="M57 -618l93 460h227l-109 -460h-211zM150 0v1446h233v-1446h-233z" />
<glyph unicode="&#x13d;" horiz-adv-x="1015" d="M158 0v1417h239v-1186h549v-231h-788zM700 903v514h226v-514h-226z" />
<glyph unicode="&#x13e;" horiz-adv-x="960" d="M150 0v1446h233v-1446h-233zM582 903v514h225v-514h-225z" />
<glyph unicode="&#x141;" horiz-adv-x="1015" d="M-59 573l217 152v692h239v-524l248 174l115 -158l-363 -254v-424h549v-231h-788v487l-103 -71z" />
<glyph unicode="&#x142;" horiz-adv-x="720" d="M14 567l230 160v719h233v-555l137 96l115 -160l-252 -176v-651h-233v487l-115 -79z" />
<glyph unicode="&#x143;" horiz-adv-x="1429" d="M158 0v1417h389l450 -1118h35v1118h242v-1417h-379l-463 1118h-35v-1118h-239zM426 1769l500 191l78 -221l-506 -164z" />
<glyph unicode="&#x144;" horiz-adv-x="1153" d="M152 0v1022h233v-51q162 76 274 76q205 0 281 -120t76 -392v-535h-234v532q0 158 -32.5 226.5t-135.5 68.5q-41 0 -98 -12t-94 -24l-37 -11v-780h-233zM287 1380l499 191l80 -221l-508 -164z" />
<glyph unicode="&#x145;" horiz-adv-x="1429" d="M158 0v1417h389l450 -1118h35v1118h242v-1417h-379l-463 1118h-35v-1118h-239zM553 -618l92 460h227l-108 -460h-211z" />
<glyph unicode="&#x146;" horiz-adv-x="1153" d="M152 0v1022h233v-51q162 76 274 76q205 0 281 -120t76 -392v-535h-234v532q0 158 -32.5 226.5t-135.5 68.5q-41 0 -98 -12t-94 -24l-37 -11v-780h-233zM408 -618l92 460h227l-109 -460h-210z" />
<glyph unicode="&#x147;" horiz-adv-x="1429" d="M158 0v1417h389l450 -1118h35v1118h242v-1417h-379l-463 1118h-35v-1118h-239zM338 1903h268l111 -115l108 115h265l-269 -295h-211z" />
<glyph unicode="&#x148;" horiz-adv-x="1153" d="M152 0v1022h233v-51q162 76 274 76q205 0 281 -120t76 -392v-535h-234v532q0 158 -32.5 226.5t-135.5 68.5q-41 0 -98 -12t-94 -24l-37 -11v-780h-233zM217 1532h254l107 -139l104 139h254l-262 -336h-197z" />
<glyph unicode="&#x14a;" horiz-adv-x="1429" d="M158 0v1417h389l450 -1118h35v1118h242v-1417v-43q0 -225 -94.5 -301t-327.5 -76v225q100 0 140 34t40 134v27h-137l-463 1118h-35v-1118h-239z" />
<glyph unicode="&#x14b;" horiz-adv-x="1153" d="M150 0v1022h233v-51q172 76 285 76q193 0 270.5 -127t77.5 -385v-529q0 -209 -66.5 -304t-285.5 -202l-105 195q145 80 184 133t39 170v534q0 147 -33.5 224.5t-127.5 77.5q-41 0 -100.5 -13.5t-98.5 -25.5l-39 -13v-782h-233z" />
<glyph unicode="&#x14c;" horiz-adv-x="1323" d="M90 698q0 375 128 558.5t443.5 183.5t443.5 -183.5t128 -558t-127 -548t-444.5 -173.5t-444.5 174t-127 547zM317 1659v203h687v-203h-687zM338 698q0 -262 67.5 -375.5t256 -113.5t256 112.5t67.5 377t-68.5 387t-255 122.5t-255 -123t-68.5 -387z" />
<glyph unicode="&#x14d;" horiz-adv-x="1083" d="M82 516q0 260 106.5 395.5t354.5 135.5q244 0 351 -136.5t107 -394.5q0 -264 -103 -401.5t-355 -137.5t-356.5 136.5t-104.5 402.5zM219 1282v203h645v-203h-645zM319 516q0 -176 46.5 -252t177.5 -76q129 0 175 77t46 251q0 166 -50 242t-171 76q-127 0 -175.5 -74 t-48.5 -244z" />
<glyph unicode="&#x14e;" horiz-adv-x="1323" d="M90 698q0 375 128 558.5t443.5 183.5t443.5 -183.5t128 -558t-127 -548t-444.5 -173.5t-444.5 174t-127 547zM301 1903h242q14 -100 119 -101q51 0 83.5 26.5t36.5 74.5h242q-12 -133 -104.5 -215t-257.5 -82q-164 0 -256.5 82t-104.5 215zM338 698q0 -262 67.5 -375.5 t256 -113.5t256 112.5t67.5 377t-68.5 387t-255 122.5t-255 -123t-68.5 -387z" />
<glyph unicode="&#x14f;" horiz-adv-x="1083" d="M82 516q0 260 106.5 395.5t354.5 135.5q244 0 351 -136.5t107 -394.5q0 -264 -103 -401.5t-355 -137.5t-356.5 136.5t-104.5 402.5zM168 1522h242q12 -111 133 -111t131 111h241q-12 -145 -107 -232.5t-265 -87.5q-172 0 -267.5 87.5t-107.5 232.5zM319 516 q0 -176 46.5 -252t177.5 -76q129 0 175 77t46 251q0 166 -50 242t-171 76q-127 0 -175.5 -74t-48.5 -244z" />
<glyph unicode="&#x150;" horiz-adv-x="1323" d="M90 698q0 375 128 558.5t443.5 183.5t443.5 -183.5t128 -558t-127 -548t-444.5 -173.5t-444.5 174t-127 547zM289 1622l188 360l213 -86l-207 -350zM338 698q0 -262 67.5 -375.5t256 -113.5t256 112.5t67.5 377t-68.5 387t-255 122.5t-255 -123t-68.5 -387zM725 1622 l188 358l211 -86l-204 -350z" />
<glyph unicode="&#x151;" horiz-adv-x="1083" d="M82 516q0 260 106.5 395.5t354.5 135.5q244 0 351 -136.5t107 -394.5q0 -264 -103 -401.5t-355 -137.5t-356.5 136.5t-104.5 402.5zM131 1284l258 352l186 -118l-272 -353zM319 516q0 -176 46.5 -252t177.5 -76q129 0 175 77t46 251q0 166 -50 242t-171 76 q-127 0 -175.5 -74t-48.5 -244zM541 1284l258 354l186 -120l-270 -353z" />
<glyph unicode="&#x152;" horiz-adv-x="1933" d="M123 707q0 397 118.5 565t417.5 168q117 0 256 -23h881v-231h-643v-350h520v-230h-520v-375h643v-231h-878q-143 -23 -259 -23q-162 0 -267 44.5t-163.5 139.5t-82 224t-23.5 322zM371 707q0 -283 64.5 -388.5t262.5 -105.5q49 0 217 14v963q-168 14 -223 14 q-186 0 -253.5 -104t-67.5 -393z" />
<glyph unicode="&#x153;" horiz-adv-x="1794" d="M119 516q0 260 106.5 395.5t354.5 135.5q238 0 342 -140q106 139 325 139.5t326.5 -114.5t107.5 -352l-16 -168h-627q2 -115 54.5 -168.5t173.5 -53.5l376 19l5 -182q-233 -49 -416 -50q-219 0 -320 121q-104 -121 -331 -121q-252 0 -356.5 136.5t-104.5 402.5zM358 516 q0 -176 46.5 -252t175.5 -76t175 77t46 251q0 166 -49.5 242t-171.5 76q-125 0 -173.5 -74t-48.5 -244zM1036 594h414q0 133 -46 188.5t-156.5 55.5t-161 -58.5t-50.5 -185.5z" />
<glyph unicode="&#x154;" horiz-adv-x="1261" d="M158 0v1417h534q246 0 362.5 -108.5t116.5 -347.5q0 -297 -223 -408l223 -553h-264l-194 483h-316v-483h-239zM340 1769l500 191l78 -221l-506 -164zM397 713h299q227 0 228 243q0 231 -232 232h-295v-475z" />
<glyph unicode="&#x155;" horiz-adv-x="735" d="M86 1380l500 191l80 -221l-508 -164zM152 0v1022h233v-109q135 100 309 134v-250q-184 -37 -309 -107v-690h-233z" />
<glyph unicode="&#x156;" horiz-adv-x="1263" d="M158 0v1417h534q246 0 362.5 -108.5t116.5 -347.5q0 -297 -223 -408l223 -553h-264l-194 483h-316v-483h-239zM397 713h299q227 0 228 243q0 231 -232 232h-295v-475zM465 -618l92 460h227l-108 -460h-211z" />
<glyph unicode="&#x157;" horiz-adv-x="735" d="M55 -618l92 460h228l-109 -460h-211zM152 0v1022h233v-109q135 100 309 134v-250q-184 -37 -309 -107v-690h-233z" />
<glyph unicode="&#x158;" horiz-adv-x="1261" d="M158 0v1417h534q246 0 362.5 -108.5t116.5 -347.5q0 -297 -223 -408l223 -553h-264l-194 483h-316v-483h-239zM254 1905h268l111 -115l108 115h265l-269 -295h-211zM397 713h299q227 0 228 243q0 231 -232 232h-295v-475z" />
<glyph unicode="&#x159;" horiz-adv-x="735" d="M16 1532h254l107 -139l104 139h254l-262 -336h-197zM152 0v1022h233v-109q135 100 309 134v-250q-184 -37 -309 -107v-690h-233z" />
<glyph unicode="&#x15a;" horiz-adv-x="1087" d="M72 1036q0 199 129 302.5t362 103.5q70 0 176.5 -12.5t178.5 -24.5l69 -14l-18 -215q-287 33 -406 32q-252 0 -252 -168q0 -86 59.5 -126t247.5 -93q229 -68 314.5 -150.5t85.5 -262.5q0 -215 -130 -323t-353 -108q-70 0 -177.5 13.5t-181.5 25.5l-74 15l25 215 q260 -35 405 -35q127 0 185.5 44t58.5 146q0 82 -55 124t-215 83q-240 61 -337 152.5t-97 275.5zM270 1769l500 191l78 -221l-506 -164z" />
<glyph unicode="&#x15b;" horiz-adv-x="1011" d="M102 723q0 164 110 244t277 80l390 -48l-5 -198q-246 33 -368 33q-92 0 -131 -24t-39 -81q0 -47 41 -66.5t172 -39.5q205 -33 282.5 -100.5t77.5 -217.5q0 -328 -407 -328q-66 0 -161 11.5t-159 23.5l-63 11l8 198q248 -33 352 -33q109 0 153 25t44 86q0 49 -37 69.5 t-160 41.5q-209 35 -293 98t-84 215zM217 1380l500 191l80 -221l-508 -164z" />
<glyph unicode="&#x15c;" horiz-adv-x="1087" d="M72 1036q0 199 129 302.5t362 103.5q70 0 176.5 -12.5t178.5 -24.5l69 -14l-18 -215q-287 33 -406 32q-252 0 -252 -168q0 -86 59.5 -126t247.5 -93q229 -68 314.5 -150.5t85.5 -262.5q0 -215 -130 -323t-353 -108q-70 0 -177.5 13.5t-181.5 25.5l-74 15l25 215 q260 -35 405 -35q127 0 185.5 44t58.5 146q0 82 -55 124t-215 83q-240 61 -337 152.5t-97 275.5zM184 1616l271 295h213l270 -295h-264l-111 108l-108 -108h-271z" />
<glyph unicode="&#x15d;" horiz-adv-x="1011" d="M102 723q0 164 110 244t277 80l390 -48l-5 -198q-246 33 -368 33q-92 0 -131 -24t-39 -81q0 -47 41 -66.5t172 -39.5q205 -33 282.5 -100.5t77.5 -217.5q0 -328 -407 -328q-66 0 -161 11.5t-159 23.5l-63 11l8 198q248 -33 352 -33q109 0 153 25t44 86q0 49 -37 69.5 t-160 41.5q-209 35 -293 98t-84 215zM145 1196l265 336h188l266 -336h-252l-106 141l-109 -141h-252z" />
<glyph unicode="&#x15e;" horiz-adv-x="1087" d="M72 1036q0 199 129 302.5t362 103.5q70 0 176.5 -12.5t178.5 -24.5l69 -14l-18 -215q-287 33 -406 32q-252 0 -252 -168q0 -86 59.5 -126t247.5 -93q229 -68 314.5 -150.5t85.5 -262.5q0 -195 -107.5 -301.5t-296.5 -124.5v-66q129 -2 186.5 -38t57.5 -138 q0 -109 -56.5 -163t-158.5 -54q-39 0 -86 5t-74 9l-26 6l8 140q70 -4 110 -5q82 0 82 62q0 53 -82 53h-61v184q-70 2 -173 15.5t-171 25.5l-68 13l25 215q260 -35 405 -35q127 0 185.5 44t58.5 146q0 82 -55 124t-215 83q-240 61 -337 152.5t-97 275.5z" />
<glyph unicode="&#x15f;" horiz-adv-x="1011" d="M102 723q0 164 110 244t277 80l390 -48l-5 -198q-246 33 -368 33q-92 0 -131 -24t-39 -81q0 -47 41 -66.5t172 -39.5q205 -33 282.5 -100.5t77.5 -217.5q0 -313 -368 -325v-64q129 -2 186 -38t57 -138q0 -109 -56 -163t-159 -54q-39 0 -86 5t-73 9l-27 6l8 140 q70 -4 111 -5q82 0 82 62q0 53 -82 53h-62v187q-63 4 -144 15t-128 19l-49 9l8 198q248 -33 352 -33q109 0 153 25t44 86q0 49 -37 69.5t-160 41.5q-209 35 -293 98t-84 215z" />
<glyph unicode="&#x160;" horiz-adv-x="1087" d="M72 1036q0 199 129 302.5t362 103.5q70 0 176.5 -12.5t178.5 -24.5l69 -14l-18 -215q-287 33 -406 32q-252 0 -252 -168q0 -86 59.5 -126t247.5 -93q229 -68 314.5 -150.5t85.5 -262.5q0 -215 -130 -323t-353 -108q-70 0 -177.5 13.5t-181.5 25.5l-74 15l25 215 q260 -35 405 -35q127 0 185.5 44t58.5 146q0 82 -55 124t-215 83q-240 61 -337 152.5t-97 275.5zM188 1907h269l110 -115l109 115h264l-268 -295h-211z" />
<glyph unicode="&#x161;" horiz-adv-x="1011" d="M102 723q0 164 110 244t277 80l390 -48l-5 -198q-246 33 -368 33q-92 0 -131 -24t-39 -81q0 -47 41 -66.5t172 -39.5q205 -33 282.5 -100.5t77.5 -217.5q0 -328 -407 -328q-66 0 -161 11.5t-159 23.5l-63 11l8 198q248 -33 352 -33q109 0 153 25t44 86q0 49 -37 69.5 t-160 41.5q-209 35 -293 98t-84 215zM168 1532h254l106 -139l105 139h254l-262 -336h-197z" />
<glyph unicode="&#x162;" horiz-adv-x="991" d="M-16 1186v231h1024v-231h-390v-1186h-241v1186h-393zM336 -618l92 460h227l-108 -460h-211z" />
<glyph unicode="&#x163;" horiz-adv-x="737" d="M39 811v211h129v297h233v-297h277v-211h-277v-418q0 -117 17.5 -155.5t89.5 -38.5l166 6l10 -201q-137 -29 -209 -29q-176 0 -241.5 82t-65.5 303v451h-129zM201 -618l92 460h227l-108 -460h-211z" />
<glyph unicode="&#x164;" horiz-adv-x="991" d="M-16 1186v231h1024v-231h-390v-1186h-241v1186h-393zM119 1905h268l111 -115l108 115h264l-268 -295h-211z" />
<glyph unicode="&#x165;" horiz-adv-x="1052" d="M39 811v211h129v297h233v-297h277v-211h-277v-418q0 -117 17.5 -155.5t89.5 -38.5l166 6l10 -201q-137 -29 -209 -29q-176 0 -241.5 82t-65.5 303v451h-129zM774 903v514h225v-514h-225z" />
<glyph unicode="&#x166;" horiz-adv-x="991" d="M-16 1186v231h1024v-231h-390v-432h306v-203h-306v-551h-241v551h-289v203h289v432h-393z" />
<glyph unicode="&#x167;" horiz-adv-x="737" d="M39 811v211h129v297h233v-297h277v-211h-277v-186h-233v186h-129zM61 422v203h107v-203h-107zM168 360v62h233v-29q0 -117 17.5 -155.5t89.5 -38.5l166 6l10 -201q-137 -29 -209 -29q-176 0 -241.5 82t-65.5 303zM401 422v203h254v-203h-254z" />
<glyph unicode="&#x168;" horiz-adv-x="1320" d="M135 457v960h242v-960q0 -131 70.5 -185.5t203.5 -54.5q135 0 208 55.5t73 184.5v960h242v-960q0 -250 -130.5 -362.5t-392.5 -112.5q-258 0 -387 112.5t-129 362.5zM262 1794q12 14 33.5 35.5t78 56.5t101.5 35q66 0 191 -48t147.5 -48t63.5 21.5t69 41.5l31 23l53 -180 q-12 -14 -32.5 -35t-77 -55.5t-101.5 -34.5q-55 0 -184 49t-158 49q-25 0 -65.5 -22.5t-69.5 -43.5l-29 -22z" />
<glyph unicode="&#x169;" horiz-adv-x="1146" d="M137 487v535h234v-533q0 -178 28.5 -239.5t139.5 -61.5q41 0 96 12.5t90 24.5l37 11v786h233v-1022h-233v51q-160 -74 -270 -74q-213 0 -284 113.5t-71 396.5zM201 1403q12 14 32.5 34.5t76 54.5t100.5 34q66 0 172 -46t128.5 -46t62.5 20.5t69 40.5l28 21l52 -179 q-12 -14 -32 -33.5t-74 -53t-99 -33.5q-55 0 -166 47t-139 47q-25 0 -65 -20.5t-68 -41.5l-27 -22z" />
<glyph unicode="&#x16a;" horiz-adv-x="1320" d="M135 457v960h242v-960q0 -131 70.5 -185.5t203.5 -54.5q135 0 208 55.5t73 184.5v960h242v-960q0 -250 -130.5 -362.5t-392.5 -112.5q-258 0 -387 112.5t-129 362.5zM317 1659v203h687v-203h-687z" />
<glyph unicode="&#x16b;" horiz-adv-x="1146" d="M137 487v535h234v-533q0 -178 28.5 -239.5t139.5 -61.5q41 0 96 12.5t90 24.5l37 11v786h233v-1022h-233v51q-160 -74 -270 -74q-213 0 -284 113.5t-71 396.5zM252 1282v203h645v-203h-645z" />
<glyph unicode="&#x16c;" horiz-adv-x="1320" d="M135 457v960h242v-960q0 -131 70.5 -185.5t203.5 -54.5q135 0 208 55.5t73 184.5v960h242v-960q0 -250 -130.5 -362.5t-392.5 -112.5q-258 0 -387 112.5t-129 362.5zM299 1903h242q14 -100 120.5 -100.5t120.5 100.5h242q-12 -133 -105.5 -215t-256.5 -82 q-166 0 -258.5 82t-104.5 215z" />
<glyph unicode="&#x16d;" horiz-adv-x="1146" d="M137 487v535h234v-533q0 -178 28.5 -239.5t139.5 -61.5q41 0 96 12.5t90 24.5l37 11v786h233v-1022h-233v51q-160 -74 -270 -74q-213 0 -284 113.5t-71 396.5zM199 1522h241q12 -111 133 -111t132 111h241q-12 -145 -107.5 -232.5t-265.5 -87.5q-172 0 -267 87.5 t-107 232.5z" />
<glyph unicode="&#x16e;" horiz-adv-x="1320" d="M135 457v960h242v-960q0 -131 70.5 -185.5t203.5 -54.5q135 0 208 55.5t73 184.5v960h242v-960q0 -250 -130.5 -362.5t-392.5 -112.5q-258 0 -387 112.5t-129 362.5zM375 1722q0 115 81 179.5t206 64.5q123 0 203.5 -64.5t80.5 -179.5q0 -113 -82 -178t-202 -65 q-125 0 -206 65t-81 178zM557 1722.5q0 -36.5 27.5 -58.5t77.5 -22q47 0 74.5 22t27.5 58.5t-27.5 58t-74.5 21.5q-49 0 -77 -21.5t-28 -58z" />
<glyph unicode="&#x16f;" horiz-adv-x="1146" d="M137 487v535h234v-533q0 -178 28.5 -239.5t139.5 -61.5q41 0 96 12.5t90 24.5l37 11v786h233v-1022h-233v51q-160 -74 -270 -74q-213 0 -284 113.5t-71 396.5zM346 1310.5q0 98.5 65.5 165t163.5 66.5q96 0 164 -67.5t68 -163.5q0 -98 -66.5 -164t-165 -66t-164 65.5 t-65.5 164zM502 1310.5q0 -32.5 21.5 -54t54 -21.5t53 21.5t20.5 54t-20.5 54t-53 21.5t-54 -21.5t-21.5 -54z" />
<glyph unicode="&#x170;" horiz-adv-x="1320" d="M135 457v960h242v-960q0 -131 70.5 -185.5t203.5 -54.5q135 0 208 55.5t73 184.5v960h242v-960q0 -250 -130.5 -362.5t-392.5 -112.5q-258 0 -387 112.5t-129 362.5zM285 1612l188 358l213 -86l-207 -348zM721 1610l188 358l213 -86l-207 -348z" />
<glyph unicode="&#x171;" horiz-adv-x="1146" d="M137 487v535h234v-533q0 -178 28.5 -239.5t139.5 -61.5q41 0 96 12.5t90 24.5l37 11v786h233v-1022h-233v51q-160 -74 -270 -74q-213 0 -284 113.5t-71 396.5zM217 1284l260 352l185 -118l-271 -353zM629 1284l258 354l186 -120l-272 -353z" />
<glyph unicode="&#x172;" horiz-adv-x="1320" d="M135 457v960h242v-960q0 -131 70.5 -185.5t203.5 -54.5q135 0 208 55.5t73 184.5v960h242v-960q0 -379 -320 -455h8q-119 -104 -119 -174q0 -27 14.5 -44t39.5 -17l84 8l22 -189q-111 -23 -192 -22q-92 0 -151.5 51t-59.5 139q0 119 118 228q-242 8 -362.5 120.5 t-120.5 354.5z" />
<glyph unicode="&#x173;" horiz-adv-x="1146" d="M137 487v535h234v-533q0 -178 28.5 -239.5t139.5 -61.5q41 0 96 12.5t90 24.5l37 11v786h233v-1022h-8l2 2l-196 18q-12 -8 -27 -20h-4v51q-160 -74 -270 -74q-213 0 -284 113.5t-71 396.5zM627 -246q0 131 139 246h221q-25 -18 -71 -73.5t-46 -98.5q0 -27 14.5 -44 t39.5 -17l84 8l22 -189q-111 -23 -192 -22q-92 0 -151.5 51t-59.5 139z" />
<glyph unicode="&#x174;" horiz-adv-x="1898" d="M57 1417h252l230 -1171h41l233 1167h272l238 -1167h39l227 1171h252l-311 -1417h-375l-207 1061l-203 -1061h-374zM571 1616l271 295h213l270 -295h-264l-111 108l-108 -108h-271z" />
<glyph unicode="&#x175;" horiz-adv-x="1540" d="M35 1022h231l152 -811h45l184 793h246l184 -793h45l152 811h231l-209 -1022h-378l-150 684l-150 -684h-374zM412 1196l264 336h188l266 -336h-251l-107 141l-108 -141h-252z" />
<glyph unicode="&#x176;" horiz-adv-x="1157" d="M27 1417h268l285 -543l282 543h268l-428 -813v-604h-241v606zM201 1616l270 295h213l270 -295h-264l-110 108l-109 -108h-270z" />
<glyph unicode="&#x177;" horiz-adv-x="991" d="M27 1022h231l211 -795h53l211 795h232l-381 -1458h-232l113 436h-172zM135 1196l264 336h189l266 -336h-252l-106 141l-109 -141h-252z" />
<glyph unicode="&#x178;" horiz-adv-x="1157" d="M27 1417h268l285 -543l282 543h268l-428 -813v-604h-241v606zM250 1645v241h223v-241h-223zM694 1645v241h224v-241h-224z" />
<glyph unicode="&#x179;" horiz-adv-x="1167" d="M123 0v246l616 905v35h-616v231h921v-246l-616 -907v-33h616v-231h-921zM293 1769l500 191l77 -221l-505 -164z" />
<glyph unicode="&#x17a;" horiz-adv-x="978" d="M109 0v211l479 602h-479v211h759v-211l-477 -602h477v-211h-759zM184 1380l500 191l80 -221l-508 -164z" />
<glyph unicode="&#x17b;" horiz-adv-x="1167" d="M123 0v246l616 905v35h-616v231h921v-246l-616 -907v-33h616v-231h-921zM467 1620v244h233v-244h-233z" />
<glyph unicode="&#x17c;" horiz-adv-x="978" d="M109 0v211l479 602h-479v211h759v-211l-477 -602h477v-211h-759zM371 1176v243h235v-243h-235z" />
<glyph unicode="&#x17d;" horiz-adv-x="1167" d="M123 0v246l616 905v35h-616v231h921v-246l-616 -907v-33h616v-231h-921zM225 1907h269l110 -115l109 115h264l-268 -295h-211z" />
<glyph unicode="&#x17e;" horiz-adv-x="978" d="M109 0v211l479 602h-479v211h759v-211l-477 -602h477v-211h-759zM113 1532h254l106 -139l105 139h253l-262 -336h-196z" />
<glyph unicode="&#x192;" d="M143 -297l37 -2q35 0 81 -2t71 -2q121 0 121 168v899h-117v211h117v67q0 217 60 303.5t216 92.5q53 0 88 -4l150 -17l-2 -192q-96 4 -162 4q-63 0 -90 -40t-27 -132v-82h266v-211h-266v-899q0 -205 -89 -286t-265 -81l-189 23v182z" />
<glyph unicode="&#x1fa;" horiz-adv-x="1239" d="M47 0l326 1362v2q-37 53 -37 129q0 113 81 178.5t203.5 65.5t204.5 -65.5t82 -178.5q0 -72 -37 -129l322 -1364h-242l-78 279h-514l-69 -279h-242zM313 1970l500 191l80 -222l-508 -163zM410 510h415l-157 686h-97zM518 1493q0 -59 64 -76h77q66 16 66 76 q0 37 -28.5 58.5t-76 21.5t-75 -21.5t-27.5 -58.5z" />
<glyph unicode="&#x1fb;" horiz-adv-x="1077" d="M88 305q0 158 84 228.5t258 82.5l254 21v61q0 59 -34 91t-93 32q-68 0 -166 -5t-164 -9l-65 -4l-8 198q264 45 415 46q174 0 261.5 -81t87.5 -266v-421q2 -53 20 -74t63 -29l-8 -199q-113 0 -168 16.5t-106 55.5q-176 -72 -334 -72q-143 0 -220 87t-77 241zM248 1780 l500 190l79 -221l-508 -164zM301 1278q0 96 66.5 163.5t164.5 67.5q96 0 163 -67.5t67 -163.5q0 -98 -66.5 -163.5t-163.5 -65.5q-98 0 -164.5 65.5t-66.5 163.5zM324 311q0 -133 104 -133l256 41v236l-225 -13q-135 -12 -135 -131zM459 1278q0 -33 21.5 -54.5t54.5 -21.5 q31 0 52 21.5t21 54.5t-21.5 54.5t-51.5 21.5q-33 0 -54.5 -21.5t-21.5 -54.5z" />
<glyph unicode="&#x1fc;" horiz-adv-x="1673" d="M92 0l406 1417h1263v-229h-647v-352h524v-230h-524v-377h647v-229h-884v279h-461l-80 -279h-244zM475 510h402l2 678h-211zM559 1769l500 191l78 -221l-506 -164z" />
<glyph unicode="&#x1fd;" horiz-adv-x="1695" d="M109 305q0 164 88 232.5t272 80.5l236 19v61q0 59 -35 91t-92 32q-68 0 -166.5 -5t-163.5 -9l-66 -6l-8 205q264 41 416 41q186 0 268 -101q102 100 289 101q219 0 326.5 -115t107.5 -352l-16 -168h-627q2 -115 54 -168.5t173 -53.5l379 19l4 -182q-236 -49 -418 -50 q-207 0 -309 103l-53 -25q-174 -78 -365 -78q-143 0 -218.5 86t-75.5 242zM344 311q0 -133 105 -133q47 0 113.5 11.5t104.5 20.5t48 13q-12 104 -13 232l-223 -13q-135 -10 -135 -131zM578 1380l499 191l80 -221l-508 -164zM938 594h412q0 133 -46.5 188.5t-157 55.5 t-159.5 -58.5t-49 -185.5z" />
<glyph unicode="&#x1fe;" horiz-adv-x="1343" d="M90 698q0 375 128 558.5t444 183.5q109 0 208 -27l115 246l217 -82l-131 -283q162 -174 162 -596q0 -375 -127 -548t-444 -173q-98 0 -195 21l-119 -254l-213 94l125 266q-170 162 -170 594zM338 698q0 -229 45 -331l385 827q-53 14 -106 14q-186 0 -255 -123t-69 -387z M350 1769l500 191l78 -221l-506 -164zM569 217q35 -8 93 -8q188 0 255.5 112.5t67.5 376.5q0 213 -41 326z" />
<glyph unicode="&#x1ff;" horiz-adv-x="1083" d="M82 516q0 260 106.5 395.5t354.5 135.5q68 0 127 -13l82 209l145 -55l-86 -207q190 -117 190 -465q0 -264 -103 -401.5t-355 -137.5q-76 0 -137 13l-89 -213l-143 53l90 213q-182 117 -182 473zM252 1380l500 191l79 -221l-507 -164zM319 516q0 -180 46 -250l223 563 q-29 4 -45 5q-127 0 -175.5 -74t-48.5 -244zM483 193q37 -4 60 -5q129 0 175 77t46 251q0 170 -51 244z" />
<glyph unicode="&#x218;" horiz-adv-x="1087" d="M72 1036q0 199 129 302.5t362 103.5q70 0 176.5 -12.5t178.5 -24.5l69 -14l-18 -215q-287 33 -406 32q-252 0 -252 -168q0 -86 59.5 -126t247.5 -93q229 -68 314.5 -150.5t85.5 -262.5q0 -215 -130 -323t-353 -108q-70 0 -177.5 13.5t-181.5 25.5l-74 15l25 215 q260 -35 405 -35q127 0 185.5 44t58.5 146q0 82 -55 124t-215 83q-240 61 -337 152.5t-97 275.5zM352 -618l92 460h228l-109 -460h-211z" />
<glyph unicode="&#x219;" horiz-adv-x="1011" d="M102 723q0 164 110 244t277 80l390 -48l-5 -198q-246 33 -368 33q-92 0 -131 -24t-39 -81q0 -47 41 -66.5t172 -39.5q205 -33 282.5 -100.5t77.5 -217.5q0 -328 -407 -328q-66 0 -161 11.5t-159 23.5l-63 11l8 198q248 -33 352 -33q109 0 153 25t44 86q0 49 -37 69.5 t-160 41.5q-209 35 -293 98t-84 215zM344 -618l92 460h228l-109 -460h-211z" />
<glyph unicode="&#x2c6;" horiz-adv-x="526" d="M-74 1196l264 336h189l266 -336h-252l-106 141l-109 -141h-252z" />
<glyph unicode="&#x2c7;" horiz-adv-x="526" d="M-63 1532h253l107 -139l104 139h254l-262 -336h-196z" />
<glyph unicode="&#x2d8;" horiz-adv-x="526" d="M-88 1522h242q12 -111 133 -111t131 111h244q-12 -145 -108.5 -232.5t-266.5 -87.5t-266.5 87.5t-108.5 232.5z" />
<glyph unicode="&#x2d9;" horiz-adv-x="526" d="M147 1176v243h234v-243h-234z" />
<glyph unicode="&#x2da;" horiz-adv-x="526" d="M39 1311q0 96 66.5 163.5t164.5 67.5q96 0 163 -67.5t67 -163.5q0 -98 -66.5 -164t-163.5 -66q-98 0 -164.5 66t-66.5 164zM197 1310.5q0 -32.5 21.5 -54t53.5 -21.5q31 0 52.5 21.5t21.5 54t-21.5 54t-52.5 21.5q-33 0 -54 -21.5t-21 -54z" />
<glyph unicode="&#x2db;" horiz-adv-x="954" d="M428 -246q0 133 150 254l16 12l197 -18q-119 -104 -119 -174q0 -27 14 -44t39 -17l84 8l22 -189q-111 -23 -192 -22q-92 0 -151.5 51t-59.5 139z" />
<glyph unicode="&#x2dc;" horiz-adv-x="526" d="M-72 1403q12 14 33 34.5t76 54.5t100 34q66 0 172.5 -46t129 -46t62.5 20.5t68 40.5l29 21l51 -179q-12 -14 -31.5 -33.5t-74 -53t-99.5 -33.5q-55 0 -165.5 47t-139.5 47q-25 0 -64.5 -20.5t-66.5 -41.5l-28 -22z" />
<glyph unicode="&#x2dd;" horiz-adv-x="526" d="M-102 1284l258 352l186 -118l-272 -353zM307 1284l258 354l187 -120l-273 -353z" />
<glyph unicode="&#x300;" horiz-adv-x="526" d="M18 1362l74 207l500 -189l-68 -184z" />
<glyph unicode="&#x301;" horiz-adv-x="526" d="M-14 1380l499 191l80 -221l-508 -164z" />
<glyph unicode="&#x302;" horiz-adv-x="526" d="M-55 1196l264 336h188l267 -336h-252l-107 141l-108 -141h-252z" />
<glyph unicode="&#x303;" horiz-adv-x="526" d="M-72 1403q12 14 33 34.5t76 54.5t100 34q66 0 172.5 -46t129 -46t62.5 20.5t68 40.5l29 21l51 -179q-12 -14 -31.5 -33.5t-74 -53t-99.5 -33.5q-55 0 -165.5 47t-139.5 47q-25 0 -64.5 -20.5t-66.5 -41.5l-28 -22z" />
<glyph unicode="&#x304;" horiz-adv-x="526" d="M-49 1282v203h645v-203h-645z" />
<glyph unicode="&#x306;" horiz-adv-x="526" d="M-88 1522h242q12 -111 133 -111t131 111h244q-12 -145 -108.5 -232.5t-266.5 -87.5t-266.5 87.5t-108.5 232.5z" />
<glyph unicode="&#x307;" horiz-adv-x="526" d="M147 1176v243h234v-243h-234z" />
<glyph unicode="&#x308;" horiz-adv-x="526" d="M-49 1253v242h223v-242h-223zM383 1253v242h223v-242h-223z" />
<glyph unicode="&#x30a;" horiz-adv-x="526" d="M47 1311q0 96 66.5 163.5t165.5 67.5q96 0 162.5 -67.5t66.5 -163.5q0 -98 -66.5 -164t-162.5 -66q-98 0 -165 66t-67 164zM205 1310.5q0 -32.5 21.5 -54t54.5 -21.5q31 0 52 21.5t21 54t-21.5 54t-51.5 21.5q-33 0 -54.5 -21.5t-21.5 -54z" />
<glyph unicode="&#x30b;" horiz-adv-x="526" d="M-102 1284l258 352l186 -118l-272 -353zM307 1284l258 354l187 -120l-273 -353z" />
<glyph unicode="&#x30c;" horiz-adv-x="526" d="M-80 1532h254l107 -139l104 139h254l-262 -336h-197z" />
<glyph unicode="&#x312;" horiz-adv-x="348" d="M8 1198l111 461h209l-90 -461h-230z" />
<glyph unicode="&#x315;" horiz-adv-x="342" d="M49 903v514h225v-514h-225z" />
<glyph unicode="&#x326;" horiz-adv-x="348" d="M8 -618l92 460h228l-109 -460h-211z" />
<glyph unicode="&#x327;" horiz-adv-x="1525" d="M666 -457l8 140q70 -4 110 -5q82 0 82 62q0 53 -82 53h-61v209h100v-86q129 -2 186.5 -38t57.5 -138q0 -109 -56.5 -163t-158.5 -54q-39 0 -86 5t-74 9z" />
<glyph unicode="&#x328;" horiz-adv-x="954" d="M428 -246q0 133 150 254l16 12l197 -18q-119 -104 -119 -174q0 -27 14 -44t39 -17l84 8l22 -189q-111 -23 -192 -22q-92 0 -151.5 51t-59.5 139z" />
<glyph unicode="&#x394;" d="M68 0v197l278 1204h399l277 -1206v-195h-954zM311 217h469l-213 967h-41z" />
<glyph unicode="&#x2206;" d="M68 0v197l278 1204h399l277 -1206v-195h-954zM311 217h469l-213 967h-41z" />
<glyph unicode="&#x3a9;" d="M70 758q0 328 105.5 471t367.5 143t367.5 -143.5t105.5 -470.5q0 -270 -160 -537l-18 -31h176v-208h-418v188q20 33 50 87t79 200.5t49 263.5q0 229 -46 329.5t-185 100.5q-147 0 -189.5 -97.5t-42.5 -332.5q0 -117 45 -255t90 -216l43 -80v-188h-417v208h176 q-8 10 -19.5 30t-42 81t-54 124.5t-43 155t-19.5 177.5z" />
<glyph unicode="&#x2126;" d="M70 758q0 328 105.5 471t367.5 143t367.5 -143.5t105.5 -470.5q0 -270 -160 -537l-18 -31h176v-208h-418v188q20 33 50 87t79 200.5t49 263.5q0 229 -46 329.5t-185 100.5q-147 0 -189.5 -97.5t-42.5 -332.5q0 -117 45 -255t90 -216l43 -80v-188h-417v208h176 q-8 10 -19.5 30t-42 81t-54 124.5t-43 155t-19.5 177.5z" />
<glyph unicode="&#x3c0;" d="M8 791v206q51 10 128 16.5t128 8.5l51 2h443q195 0 295 33v-207q-53 -25 -164 -31v-504q0 -74 30.5 -101.5t122.5 -27.5v-202q-170 0 -252.5 31.5t-109.5 98t-27 201.5v502h-221l-55 -817h-236l56 817q-43 -2 -90.5 -9t-73.5 -13z" />
<glyph unicode="&#x1e80;" horiz-adv-x="1898" d="M57 1417h252l230 -1171h41l233 1167h272l238 -1167h39l227 1171h252l-311 -1417h-375l-207 1061l-203 -1061h-374zM692 1722l78 220l500 -189l-72 -197z" />
<glyph unicode="&#x1e81;" horiz-adv-x="1540" d="M35 1022h231l152 -811h45l184 793h246l184 -793h45l152 811h231l-209 -1022h-378l-150 684l-150 -684h-374zM485 1362l74 207l500 -189l-68 -184z" />
<glyph unicode="&#x1e82;" horiz-adv-x="1898" d="M57 1417h252l230 -1171h41l233 1167h272l238 -1167h39l227 1171h252l-311 -1417h-375l-207 1061l-203 -1061h-374zM664 1769l499 191l78 -221l-506 -164z" />
<glyph unicode="&#x1e83;" horiz-adv-x="1540" d="M35 1022h231l152 -811h45l184 793h246l184 -793h45l152 811h231l-209 -1022h-378l-150 684l-150 -684h-374zM479 1380l500 191l80 -221l-508 -164z" />
<glyph unicode="&#x1e84;" horiz-adv-x="1898" d="M57 1417h252l230 -1171h41l233 1167h272l238 -1167h39l227 1171h252l-311 -1417h-375l-207 1061l-203 -1061h-374zM614 1645v241h224v-241h-224zM1059 1645v241h223v-241h-223z" />
<glyph unicode="&#x1e85;" horiz-adv-x="1540" d="M35 1022h231l152 -811h45l184 793h246l184 -793h45l152 811h231l-209 -1022h-378l-150 684l-150 -684h-374zM442 1253v242h224v-242h-224zM874 1253v242h224v-242h-224z" />
<glyph unicode="&#x1eab;" d="M88 305q0 158 84 228.5t258 82.5l254 21v61q0 59 -34 91t-93 32q-68 0 -166 -5t-164 -9l-65 -4l-8 198q264 45 415 46q174 0 261.5 -81t87.5 -266v-421q2 -53 20 -74t63 -29l-8 -199q-113 0 -168 16.5t-106 55.5q-176 -72 -334 -72q-143 0 -220 87t-77 241zM129 1706 q12 14 32.5 34.5t76 54.5t100.5 34q66 0 172 -46t129 -46t62.5 20.5t68.5 40.5l29 21l51 -179q-12 -14 -31.5 -33.5t-74 -53t-99.5 -33.5q-55 0 -165.5 47t-139.5 47q-25 0 -64.5 -20.5t-66.5 -41.5l-29 -22zM141 1135l265 335h188l266 -335h-252l-106 141l-109 -141h-252z M324 311q0 -133 104 -133l256 41v236l-225 -13q-135 -12 -135 -131z" />
<glyph unicode="&#x1eb0;" horiz-adv-x="1239" d="M47 0l338 1417h473l334 -1417h-242l-78 279h-514l-69 -279h-242zM229 2089l74 207l500 -189l-68 -184zM264 1825h242q14 -100 119 -101q111 0 120 101h244q-12 -133 -105 -215t-259 -82q-164 0 -256.5 82t-104.5 215zM410 510h415l-157 686h-97z" />
<glyph unicode="&#x1ec5;" horiz-adv-x="1038" d="M82 500q0 547 444 547q436 0 437 -467l-17 -168h-629q2 -115 54.5 -168.5t175.5 -53.5l377 19l4 -182q-233 -49 -416 -50q-229 0 -329.5 125.5t-100.5 397.5zM154 1706q12 14 32.5 34.5t75.5 54.5t100 34q66 0 172.5 -46t129 -46t62.5 20.5t69 40.5l28 21l51 -179 q-12 -14 -31.5 -33.5t-73.5 -53t-99 -33.5q-55 0 -166 47t-139 47q-25 0 -65 -20.5t-67 -41.5l-28 -22zM174 1135l264 335h189l266 -335h-252l-106 141l-109 -141h-252zM317 594h414q0 133 -47 188.5t-158 55.5q-109 0 -159 -58.5t-50 -185.5z" />
<glyph unicode="&#x1ed7;" horiz-adv-x="1087" d="M82 516q0 260 106.5 395.5t354.5 135.5q244 0 351 -136.5t107 -394.5q0 -264 -103 -401.5t-355 -137.5t-356.5 136.5t-104.5 402.5zM150 1706q12 14 32.5 34.5t75.5 54.5t100 34q66 0 172.5 -46t129 -46t62.5 20.5t69 40.5l28 21l51 -179q-12 -14 -31.5 -33.5t-73.5 -53 t-99 -33.5q-55 0 -166 47t-140 47q-25 0 -64.5 -20.5t-66.5 -41.5l-28 -22zM178 1135l264 335h189l266 -335h-252l-106 141l-109 -141h-252zM319 516q0 -176 46.5 -252t177.5 -76q129 0 175 77t46 251q0 166 -50 242t-171 76q-127 0 -175.5 -74t-48.5 -244z" />
<glyph unicode="&#x1ef2;" horiz-adv-x="1157" d="M27 1417h268l285 -543l282 543h268l-428 -813v-604h-241v606zM326 1722l77 220l500 -189l-72 -197z" />
<glyph unicode="&#x1ef3;" horiz-adv-x="991" d="M27 1022h231l211 -795h53l211 795h232l-381 -1458h-232l113 436h-172zM211 1362l74 207l499 -189l-67 -184z" />
<glyph unicode="&#x1ef8;" horiz-adv-x="1157" d="M27 1417h268l285 -543l282 543h268l-428 -813v-604h-241v606zM211 1798q12 14 32.5 34.5t76 54.5t100.5 34q66 0 172 -46t128.5 -46t62.5 20.5t69 40.5l29 21l51 -178q-12 -14 -31.5 -34t-74 -53.5t-99.5 -33.5q-55 0 -165.5 47t-139.5 47q-25 0 -65 -21.5t-66 -42.5 l-29 -20z" />
<glyph unicode="&#x1ef9;" horiz-adv-x="991" d="M27 1022h231l211 -795h53l211 795h232l-381 -1458h-232l113 436h-172zM127 1403q12 14 32.5 34.5t76 54.5t100.5 34q66 0 172 -46t128.5 -46t62.5 20.5t69 40.5l29 21l51 -179q-12 -14 -31.5 -33.5t-74 -53t-99.5 -33.5q-55 0 -165.5 47t-139.5 47q-25 0 -65 -20.5 t-68 -41.5l-27 -22z" />
<glyph unicode="&#x2013;" horiz-adv-x="1024" d="M0 453v213h1024v-213h-1024z" />
<glyph unicode="&#x2014;" horiz-adv-x="2048" d="M0 453v213h2048v-213h-2048z" />
<glyph unicode="&#x2018;" horiz-adv-x="348" d="M-20 1001l114 488h221l-96 -488h-239z" />
<glyph unicode="&#x2019;" horiz-adv-x="348" d="M31 1079l96 488h240l-115 -488h-221z" />
<glyph unicode="&#x201a;" horiz-adv-x="436" d="M14 -248l115 488h221l-96 -488h-240z" />
<glyph unicode="&#x201c;" horiz-adv-x="983" d="M209 1001l115 488h438l-96 -488h-457z" />
<glyph unicode="&#x201d;" horiz-adv-x="987" d="M172 993l96 488h240l-115 -488h-221zM514 993l96 488h240l-115 -488h-221z" />
<glyph unicode="&#x201e;" horiz-adv-x="884" d="M14 -248l115 488h221l-96 -488h-240zM438 -248l115 488h221l-96 -488h-240z" />
<glyph unicode="&#x2020;" d="M113 788v230h315v364h229v-364h316v-230h-316v-938h-229v938h-315z" />
<glyph unicode="&#x2021;" d="M113 215v229h315v344h-315v230h315v364h229v-364h314v-230h-314v-344h316v-229h-316v-365h-229v365h-315z" />
<glyph unicode="&#x2022;" d="M295 209v577h496v-577h-496z" />
<glyph unicode="&#x2026;" horiz-adv-x="1523" d="M133 0v305h252v-305h-252zM653 0v305h254v-305h-254zM1176 0v305h251v-305h-251z" />
<glyph unicode="&#x2030;" horiz-adv-x="1705" d="M20 1143q0 293 240 293t240 -293q0 -295 -240 -295t-240 295zM197 1143q0 -80 14 -116t49 -36t49.5 36t14.5 116t-13.5 114.5t-50.5 34.5t-50 -34.5t-13 -114.5zM287 0l391 1466l153 -41l-391 -1464zM614 297q0 291 238 291q240 0 240 -293q0 -145 -62.5 -220t-177.5 -75 t-176.5 75t-61.5 222zM788 297q0 -82 14.5 -118t49.5 -36q37 0 51.5 36t14.5 116t-14.5 114.5t-51.5 34.5t-50.5 -33.5t-13.5 -113.5zM1141 297q0 291 239 291q238 0 238 -293q0 -145 -61.5 -220t-176 -75t-177 75t-62.5 222zM1315 297q0 -82 14 -118t51 -36q35 0 49.5 36 t14.5 116t-13.5 114.5t-50.5 34.5t-51 -33.5t-14 -113.5z" />
<glyph unicode="&#x2039;" horiz-adv-x="761" d="M158 414v172l432 321v-237l-234 -166l234 -189v-237z" />
<glyph unicode="&#x203a;" horiz-adv-x="761" d="M172 94v238l234 188l-234 166v238l434 -322v-172z" />
<glyph unicode="&#x2070;" horiz-adv-x="542" d="M16 1296.5q0 188.5 63.5 266t195 77.5t194.5 -77.5t63 -266t-63 -264.5t-194.5 -76t-195 76t-63.5 264.5zM213 1296.5q0 -104.5 14.5 -137.5t46.5 -33q35 0 48.5 33t13.5 137.5t-13.5 139t-48 34.5t-48 -34.5t-13.5 -139z" />
<glyph unicode="&#x2074;" horiz-adv-x="542" d="M25 1059v158l100 401h209l-121 -389h86l25 184h163v-184h33v-170h-33v-80h-188v80h-274z" />
<glyph unicode="&#x2075;" horiz-adv-x="542" d="M45 991l14 154q113 -18 193 -19q66 0 65.5 53.5t-47.5 53.5l-69 -16l-142 18l23 383h410v-162h-261l-8 -82q55 18 99 19q193 0 192 -203q0 -225 -235 -225q-45 0 -103.5 7t-93.5 13z" />
<glyph unicode="&#x2076;" horiz-adv-x="542" d="M27 1280q0 182 62.5 271t209.5 89q33 0 83 -6t85 -12l35 -6l-10 -156q-125 12 -187 13q-86 0 -86 -84l14 4q14 2 38 7t40 5q211 0 211 -215q0 -109 -66.5 -171.5t-170.5 -62.5q-258 0 -258 324zM219 1227q0 -104 57 -105q55 0 56 66q0 61 -53 61q-16 0 -31 -6t-23 -10z " />
<glyph unicode="&#x2077;" horiz-adv-x="542" d="M47 1432v186h451v-191l-201 -469l-213 35l195 408v31h-232z" />
<glyph unicode="&#x2078;" horiz-adv-x="542" d="M16 1165q0 61 28 100.5t50 47.5q-20 8 -43.5 45t-23.5 102q0 180 245 180q248 0 248 -182q0 -59 -23.5 -100t-43.5 -47q12 -2 27.5 -15.5t31.5 -47.5t16 -81q0 -115 -64.5 -163t-191.5 -48t-191.5 48t-64.5 161zM211 1169q0 -59 61.5 -59t61.5 61q0 43 -43 66h-37 q-43 -23 -43 -68zM213 1436q0 -39 41 -64h37q39 23 39 64q0 51 -58 51q-59 0 -59 -51z" />
<glyph unicode="&#x2079;" horiz-adv-x="542" d="M25 1407q0 111 64.5 172t172.5 61q260 0 260 -340q0 -178 -61.5 -261t-202.5 -83q-41 0 -94 7.5t-86 15.5l-31 6l12 154q96 -12 174 -13q88 0 89 80l-15 -2q-12 -2 -33.5 -6t-40.5 -4q-208 0 -208 213zM215 1407q0 -29 15.5 -47.5t37.5 -18.5l62 19q0 113 -60 113 q-55 0 -55 -66z" />
<glyph unicode="&#x2080;" horiz-adv-x="542" d="M16 317.5q0 188.5 63.5 266.5t195 78t194.5 -78t63 -266.5t-63 -264.5t-194.5 -76t-195 76t-63.5 264.5zM213 317.5q0 -104.5 14.5 -137.5t46.5 -33q35 0 48.5 33t13.5 137.5t-13.5 139.5t-48 35t-48 -35t-13.5 -139.5z" />
<glyph unicode="&#x2081;" horiz-adv-x="542" d="M43 489l213 150h172v-639h-188v432l-111 -76z" />
<glyph unicode="&#x2082;" horiz-adv-x="542" d="M35 0v162l160 139q96 82 96 133q0 45 -84 45l-160 -14l-8 176q141 20 231 21q119 0 169 -46.5t50 -152.5q0 -68 -27.5 -116t-90.5 -99l-92 -78h215v-170h-459z" />
<glyph unicode="&#x2083;" horiz-adv-x="542" d="M45 -4l10 166q123 -14 197 -14.5t74 51.5q0 47 -68 47h-135v153h133q23 0 38 13.5t15 36.5q0 43 -67 43l-179 -13l-10 162q133 20 217 21q238 0 238 -181q0 -104 -68 -145q80 -33 80 -152q0 -102 -61.5 -154.5t-171.5 -52.5q-45 0 -105.5 5.5t-99.5 9.5z" />
<glyph unicode="&#x2084;" horiz-adv-x="542" d="M25 80v158l100 401h209l-121 -389h86l25 184h163v-184h33v-170h-33v-80h-188v80h-274z" />
<glyph unicode="&#x2085;" horiz-adv-x="542" d="M45 12l14 154q113 -18 193 -19q66 0 65.5 53.5t-47.5 53.5l-69 -16l-142 18l23 383h410v-162h-261l-8 -82q55 18 99 19q193 0 192 -203q0 -225 -235 -225q-45 0 -103.5 7t-93.5 13z" />
<glyph unicode="&#x2086;" horiz-adv-x="542" d="M27 301q0 182 62.5 271.5t209.5 89.5q33 0 83 -6.5t85 -12.5l35 -6l-10 -156q-125 12 -187 13q-86 0 -86 -84l14 4q14 2 38 7t40 5q211 0 211 -215q0 -109 -66.5 -171.5t-170.5 -62.5q-258 0 -258 324zM219 248q0 -104 57 -105q55 0 56 66q0 61 -53 61q-16 0 -31 -6 t-23 -10z" />
<glyph unicode="&#x2087;" horiz-adv-x="542" d="M47 453v186h451v-190l-201 -469l-213 34l195 408v31h-232z" />
<glyph unicode="&#x2088;" horiz-adv-x="542" d="M16 186q0 61 28 100.5t50 47.5q-20 8 -43.5 45t-23.5 102q0 180 245 181q248 0 248 -183q0 -59 -23.5 -100t-43.5 -47q12 -2 27.5 -15.5t31.5 -47t16 -81.5q0 -115 -64.5 -163t-191.5 -48t-191.5 48t-64.5 161zM211 190q0 -59 61.5 -59t61.5 62q0 43 -43 65h-37 q-43 -23 -43 -68zM213 457q0 -39 41 -64h37q39 23 39 64q0 51 -58 51q-59 0 -59 -51z" />
<glyph unicode="&#x2089;" horiz-adv-x="542" d="M25 428q0 111 64.5 172.5t172.5 61.5q260 0 260 -340q0 -178 -61.5 -261.5t-202.5 -83.5q-41 0 -94 7.5t-86 15.5l-31 6l12 154q96 -12 174 -13q88 0 89 80l-15 -2q-12 -2 -33.5 -6t-40.5 -4q-208 0 -208 213zM215 428q0 -29 15.5 -47.5t37.5 -18.5l62 19q0 113 -60 113 q-55 0 -55 -66z" />
<glyph unicode="&#x20ac;" horiz-adv-x="1187" d="M113 412v184h112v152h-112v184h125q29 242 142.5 344t356.5 102q80 0 171 -9t143 -19l51 -11l-8 -213q-203 14 -324 15q-135 0 -197.5 -46t-83.5 -165h469v-182h-485v-152h485v-184h-466q23 -111 85 -155t199 -44l318 16l6 -217q-201 -35 -363 -35q-250 0 -360.5 101.5 t-138.5 333.5h-125z" />
<glyph unicode="&#x2122;" d="M14 1167v142h410v-142h-100v-487h-158v487h-152zM479 678v631h189l102 -357l109 357h188v-631h-147v391l-93 -352h-104l-96 352v-391h-148z" />
<glyph unicode="&#x2211;" horiz-adv-x="1705" />
<glyph unicode="&#x2212;" d="M92 465v213h897v-213h-897z" />
<glyph unicode="&#x221e;" horiz-adv-x="1093" d="M55 596q0 352 271 352q80 0 129 -31.5t90 -105.5q41 74 91 105.5t130 31.5q133 0 202.5 -89t69.5 -261q0 -350 -276 -350q-78 0 -126 30.5t-89 104.5q-39 -76 -88 -105.5t-129 -29.5q-275 0 -275 348zM270 596q0 -129 74 -129q14 0 27.5 5t20.5 11t17.5 21.5t15.5 25 t16 32.5l18 36q-4 10 -13.5 28.5t-12.5 27t-11 21.5t-12 19t-12.5 14.5t-15.5 11.5t-16.5 6t-21.5 3q-74 0 -74 -133zM635 598l20 -42q14 -30 19.5 -39t18 -24.5t24.5 -20.5t31 -5q74 0 73 129q0 133 -73 133q-12 0 -22.5 -2t-20 -9t-15.5 -13.5t-14 -20.5t-12 -24l-14 -29 q-9 -21 -15 -33z" />
<glyph unicode="&#x2248;" d="M123 416q12 12 34.5 30.5t88 49t127.5 30.5q55 0 188 -47t180 -47q35 0 86.5 21.5t85.5 42.5l33 20l17 -219l-32 -31q-19 -18 -81 -48t-119 -30q-59 0 -196.5 47.5t-174.5 47.5q-41 0 -96 -21.5t-88 -44.5l-35 -20zM123 846q12 12 34.5 30.5t88 49t127.5 30.5 q55 0 188 -47t180 -47q35 0 86.5 21.5t85.5 42.5l33 20l17 -219l-32 -31q-19 -18 -81 -48t-119 -30q-59 0 -196.5 47.5t-174.5 47.5q-41 0 -96 -21.5t-88 -44.5l-35 -20z" />
<glyph unicode="&#x2260;" d="M59 254v213h318l96 217h-414v215h506l135 305l193 -76l-102 -229h221v-215h-316l-94 -217h410v-213h-504l-133 -303l-191 78l99 225h-224z" />
<glyph unicode="&#x2264;" d="M141 27v231h785v-231h-785zM141 567v310l785 235v-244l-555 -143l555 -150v-247z" />
<glyph unicode="&#x2265;" d="M160 27v231h801v-231h-801zM160 328v247l571 150l-571 143v244l801 -235v-310z" />
<glyph unicode="&#xe000;" horiz-adv-x="1020" d="M0 1020h1020v-1020h-1020v1020z" />
<glyph horiz-adv-x="481" />
<glyph horiz-adv-x="1101" d="M207 0v1495h72v-534q170 82 352 81q203 0 275.5 -115.5t72.5 -391.5q0 -301 -96.5 -427t-370.5 -126zM279 59q160 -12 231 -12q127 0 206 27.5t120 93t54 147.5t13 215q0 244 -54 345.5t-218 101.5q-82 0 -170 -20.5t-135 -41.5l-47 -20v-836z" />
<glyph horiz-adv-x="1284" d="M211 0v1434h491q209 0 311.5 -84t102.5 -265q0 -272 -198 -346q254 -70 253 -338q0 -221 -110.5 -311t-319.5 -90h-530zM285 70h456q170 0 262.5 74.5t92.5 256.5q0 297 -371 297h-440v-628zM285 766h440q164 0 239.5 80t75.5 239q0 147 -81.5 213t-256.5 66h-417v-598z " />
<glyph horiz-adv-x="983" d="M72 1024h75l299 -958h89l301 958h75l-321 -1024h-201z" />
<glyph horiz-adv-x="933" d="M78 0l346 512l-346 512h82l307 -457l307 457h82l-346 -512l346 -512h-84l-305 457l-305 -457h-84z" />
<glyph d="M94 690q0 369 130 525.5t374 156.5l328 -39l-8 -67q-147 37 -320 37q-209 0 -317.5 -135.5t-108.5 -446.5q0 4 57.5 31.5t155.5 57.5t178 30q428 0 428 -414q0 -444 -438 -444q-236 0 -347.5 178t-111.5 530zM170 649q4 -299 94 -448.5t289 -149.5q195 0 277.5 92.5 t82.5 282.5q0 166 -79.5 255t-274.5 89q-180 -6 -385 -119z" />
<glyph d="M96 928q0 211 113 327.5t334 116.5q231 0 339.5 -177t108.5 -531q0 -371 -123 -526.5t-364 -155.5q-76 0 -164 11t-139 21l-49 11l12 65q168 -39 340 -39q207 0 309 138.5t102 453.5q0 -4 -57 -31.5t-155.5 -57.5t-178.5 -30q-217 0 -322.5 109t-105.5 295zM174 928 q0 -152 86 -243t268 -91q180 6 385 119l5 2q-10 588 -375 588q-369 0 -369 -375z" />
<glyph horiz-adv-x="1337" d="M211 0v1434h586q121 0 209 -72t130 -186.5t60 -223t18 -215.5q0 -80 -7 -159.5t-32.5 -189t-67.5 -191.5t-123 -139.5t-187 -57.5h-586zM285 70h512q90 0 157.5 57t101.5 133t53 180.5t23.5 169t4.5 127.5q0 70 -14.5 161t-47.5 203.5t-105.5 187.5t-172.5 75h-512v-1294 z" />
<glyph d="M211 0v1434h74v-1364h698v-70h-772z" />
<glyph horiz-adv-x="0" />
<glyph d="M59 1165q0 143 52.5 208t164.5 65q111 0 164.5 -64.5t53.5 -210.5q0 -283 -218 -282q-111 0 -164 68.5t-53 215.5zM131 1165q0 -111 33 -165t112 -54q82 0 114 53.5t32 163.5q0 109 -32 159t-114 50q-80 0 -112.5 -50.5t-32.5 -156.5zM381 12l295 1424l74 -15l-295 -1423 zM635 285q0 143 52 207.5t165 64.5q111 0 164 -64.5t53 -209.5q0 -283 -217 -283q-111 0 -164 69t-53 216zM707 285q0 -111 32.5 -165t112.5 -54q82 0 113.5 53t31.5 164q0 109 -31.5 159t-113.5 50q-80 0 -112.5 -50.5t-32.5 -156.5z" />
<glyph d="M279 938l225 164l-223 164l41 55l225 -166l86 264l65 -20l-86 -266h277v-70h-281l86 -264l-65 -21l-86 266l-226 -161z" />
<glyph horiz-adv-x="532" d="M10 616.5q0 182.5 50.5 411.5t99.5 369l49 139h72q-23 -59 -54.5 -158.5t-86 -344.5t-54.5 -417q0 -342 178 -829l17 -43h-72q-23 51 -55.5 139t-88 319.5t-55.5 414z" />
<glyph horiz-adv-x="532" d="M-8 -246q23 59 54.5 158.5t85.5 344.5t54 417q0 342 -178 829l-16 43h71q23 -51 56 -139t88 -319.5t55 -413.5t-49 -411.5t-98 -368.5l-52 -140h-71z" />
<glyph horiz-adv-x="583" d="M0 602v66q117 29 165 86t48 159q0 27 -7 124.5t-7 138.5q0 184 83 269t277 93l4 -65q-168 -8 -230.5 -79t-62.5 -218q0 -35 7.5 -125t7.5 -119q0 -133 -45 -195.5t-160 -99.5q115 -37 160 -100.5t45 -190.5l-15 -237q0 -147 62.5 -218t230.5 -79l-4 -66q-195 8 -277.5 93 t-82.5 270q0 43 7 136t7 115q0 100 -48 154.5t-165 87.5z" />
<glyph horiz-adv-x="1933" d="M123 711q0 377 118.5 559t430.5 182q221 0 301 -18h837v-74h-763v-586h641v-74h-641v-626h763v-74h-833v-2q-72 -16 -305 -16q-164 0 -272.5 45t-169 142t-84 225.5t-23.5 316.5zM201 711q0 -174 18.5 -287t68.5 -202t144 -130t240 -41q217 0 301 19v1288q-80 25 -301 24 q-143 0 -237.5 -43t-144.5 -134t-69.5 -206.5t-19.5 -287.5zM973 1358l2 -680v680h-2z" />
<glyph horiz-adv-x="1705" d="M469 434v66h379v477h-379v65h379v392h72v-392h378v-65h-378v-477h378v-66h-378v-434h-72v434h-379z" />
<glyph horiz-adv-x="790" d="M10 1397q229 55 340 55q203 0 306.5 -74.5t103.5 -249.5q0 -92 -42 -173t-101.5 -139l-120 -111.5t-102.5 -114t-42 -123.5v-78h-71v84q0 70 42 136.5t102 121.5l120 113q59 57 101 131t42 153q0 141 -83 198.5t-255 57.5l-330 -57zM276 2v164h82v-164h-82z" />
<glyph horiz-adv-x="288" d="M51 0v164h82v-164h-82zM51 705v163h82v-163h-82z" />
<glyph horiz-adv-x="348" d="M-12 -252l84 430h86l-107 -430h-63zM66 705v163h81v-163h-81z" />
<glyph horiz-adv-x="614" d="M98 1534h375v-66h-301v-1654h301v-66h-373z" />
<glyph horiz-adv-x="614" d="M104 -186h302v1654h-302v66h375l-2 -1786h-373v66z" />
<glyph horiz-adv-x="204" d="M-41 1413h244l-10 -471h-230z" />
<glyph horiz-adv-x="727" d="M68 1413h243l-10 -471h-229zM391 1413h244l-10 -471h-230z" />
<glyph horiz-adv-x="1433" d="M78 426q0 182 77.5 271t256.5 141q-66 72 -85.5 133t-19.5 155q0 133 80 214t234 81q160 0 236.5 -79.5t76.5 -217.5q0 -147 -78 -230t-260 -142l383 -379q41 119 63 299h72q-29 -221 -80 -353l287 -280l-49 -53l-268 266q-135 -270 -455 -270q-258 0 -364.5 112.5 t-106.5 331.5zM150 428q0 -190 94 -284.5t309 -94.5q281 0 397 254l-485 481q-176 -47 -245.5 -122.5t-69.5 -233.5zM379 1126q0 -160 92 -252l74 -73q178 61 247.5 128.5t69.5 196.5q0 229 -241.5 229t-241.5 -229z" />
<glyph horiz-adv-x="1167" d="M233 0v70h189v696h-141v65h141v195q0 213 66.5 290t213.5 77l246 -25v-65q-178 25 -246 24q-111 0 -159.5 -62.5t-48.5 -238.5v-195h372v-65h-372v-696h356l168 32l14 -65l-166 -35z" />
<glyph horiz-adv-x="1214" d="M139 502v69h127q-2 33 -2 107q0 86 2 127h-127v69h131q20 262 131 387t373 125q195 0 359 -38l-7 -72q-186 41 -352 41q-227 0 -318 -106.5t-108 -336.5l637 -2v-67h-641q-2 -41 -2 -127q0 -74 2 -107l641 -2v-67h-639q16 -236 107.5 -343.5t320.5 -107.5l352 41l7 -69 q-197 -41 -359 -41q-262 0 -373.5 124.5t-130.5 395.5h-131z" />
<glyph horiz-adv-x="1705" d="M504 1407l71 29l617 -1407l-72 -29z" />
<glyph horiz-adv-x="1064" d="M55 -70h877v-69h-877v69z" />
<glyph horiz-adv-x="1259" d="M211 0v1434h522q217 0 320.5 -102.5t103.5 -330.5q0 -229 -96 -352t-328 -123h-448v-526h-74zM285 596h448q346 0 346 405q0 188 -85 275.5t-261 87.5h-448v-768z" />
<glyph d="M6 684v74h688v-74h-688zM309 285v164h82v-164h-82zM309 989v164h82v-164h-82z" />
<glyph horiz-adv-x="839" d="M-100 479v70h475v475h74v-475h479v-70h-479v-479h-74v479h-475z" />
<glyph horiz-adv-x="901" d="M123 541v69h655v-69h-655z" />
<glyph d="M129 602v74l711 469v-80l-645 -422l645 -444v-84q-641 436 -711 487z" />
<glyph d="M2 702v70h1034v-70h-1034zM4 356v70h1034v-70h-1034z" />
<glyph d="M129 115v84l645 444l-645 422v80l711 -469v-74z" />
<glyph d="M94 25l568 1413l67 -29l-567 -1411z" />
<glyph horiz-adv-x="1794" d="M123 535q0 283 95 395t325 112q299 0 377 -245q90 246 372 245q195 0 292 -116.5t97 -374.5v-68h-727q0 -221 70 -328.5t242 -107.5l372 19l4 -66q-229 -18 -378 -18q-268 2 -346 219q-37 -115 -125 -167t-250 -52q-250 0 -335 119t-85 434zM199 535q0 -143 11 -226.5 t48 -148t104.5 -89t180.5 -24.5q111 0 179.5 27.5t102 94.5t44 146.5t10.5 214.5q0 242 -81 344.5t-255 102.5q-199 0 -271.5 -93t-72.5 -349zM954 549h652q0 231 -75 329.5t-239 98.5q-338 0 -338 -428z" />
<glyph horiz-adv-x="1839" d="M72 0l514 1434h1130v-70h-764v-590h641v-69h-641v-635h764v-70h-837v440h-566l-159 -440h-82zM338 510h541v854h-236z" />
<glyph horiz-adv-x="1343" d="M94 711q0 377 119 559t430 182q168 0 287 -57l106 227l68 -29l-113 -237q111 -86 156 -244t45 -401q0 -391 -115.5 -560t-433.5 -169q-162 0 -274 47l-119 -256l-68 26l123 264q-117 78 -164 236t-47 412zM172 711q0 -229 36 -368.5t130 -211.5l559 1196q-98 55 -254 55 q-143 0 -237.5 -43t-144.5 -134t-69.5 -206.5t-19.5 -287.5zM399 94q96 -43 244 -43t241 38t143 125t68.5 201.5t18.5 295.5q0 430 -156 573z" />
<glyph horiz-adv-x="1695" d="M113 281q0 143 63.5 206.5t218.5 87.5l389 41v107q0 250 -227 250l-385 -19l-4 68q225 20 389 20q236 0 285 -196q100 197 352 196q195 0 292 -116.5t97 -374.5v-68h-727q0 -221 69.5 -328.5t241.5 -107.5l373 19l4 -66q-229 -18 -379 -18q-203 2 -293 118l-77 -32 q-190 -86 -422 -86q-260 0 -260 299zM188 281q0 -113 49.5 -173.5t137.5 -60.5q86 0 198.5 24.5t173 45t95.5 35.5q-61 121 -62 360v37l-377 -37q-113 -10 -164 -65t-51 -166zM856 549h651q0 231 -74.5 329.5t-238.5 98.5q-338 0 -338 -428z" />
<glyph d="M84 498q0 545 454.5 544.5t454.5 -544.5q0 -285 -120.5 -400.5t-333.5 -115.5t-334 115.5t-121 400.5zM303 498q0 -180 58.5 -248t177.5 -68q121 0 178 67.5t57 248.5q0 201 -56 272.5t-179 71.5q-121 0 -178.5 -71.5t-57.5 -272.5z" />
<glyph d="M164 780l420 244h186v-1024h-219v770l-303 -166z" />
<glyph d="M158 0v193l291 219q147 109 202.5 171t55.5 128q0 70 -52.5 96.5t-177.5 26.5q-35 0 -110.5 -8.5l-135 -15.5t-59.5 -9l-14 200q238 41 395 41q389 0 389 -301q0 -123 -58.5 -199.5t-197.5 -179.5l-215 -161h487v-201h-800z" />
<glyph d="M182 25l27 200q221 -27 387 -26q98 2 139 29.5t41 88.5q0 104 -184 109h-266v192h264q156 4 155 113q0 104 -161 105q-78 0 -169 -6.5t-145 -14.5l-51 -6l-20 197q227 39 383 38q188 0 285.5 -58t97.5 -195q0 -162 -146 -244q176 -68 176 -250q0 -158 -109.5 -236.5 t-289.5 -78.5q-76 0 -179.5 11t-168.5 21z" />
<glyph d="M127 176v160l279 688h233l-272 -639h303v248h219v-248h92v-209h-92v-190h-219v190h-543z" />
<glyph d="M141 41l27 201q254 -47 403 -47q184 0 185 127q0 129 -189 129q-43 0 -99 -12.5t-91 -24.5l-37 -15l-172 33l41 598h747v-229h-546l-27 -189q106 45 213 45q195 0 298 -81.5t103 -241.5q0 -166 -108.5 -259t-308.5 -93q-78 0 -187.5 15t-179.5 30z" />
<glyph d="M131 520q0 274 125 398t330 124l354 -30l-16 -183q-207 20 -338 21q-236 0 -236 -254q0 2 41 17.5t102.5 30.5t104.5 15q399 0 399 -337q0 -162 -124.5 -252t-319.5 -90q-211 0 -316.5 128.5t-105.5 411.5zM350 416q6 -244 219 -244q92 0 150.5 36t58.5 114 q0 133 -200 133q-41 0 -98.5 -10.5t-94.5 -18.5z" />
<glyph d="M170 831v193h735v-240l-416 -802l-188 51l395 753v45h-526z" />
<glyph d="M106 274q0 104 44.5 161t123.5 100q-145 76 -145 225q0 283 401 282q403 0 404 -282q0 -150 -148 -225q55 -29 86 -52.5t57.5 -77t26.5 -129.5q0 -154 -116.5 -225t-309.5 -71q-190 0 -307 72t-117 222zM326 295q0 -125 204 -125q207 0 207 127q0 59 -33.5 90t-105.5 53 h-139q-70 -23 -101.5 -55.5t-31.5 -89.5zM348 741q0 -55 26.5 -83.5t84.5 -49.5h139q117 37 117 135q0 109 -185 109q-182 0 -182 -111z" />
<glyph d="M117 700q0 164 109.5 254t293.5 90q422 0 422 -530q0 -281 -120 -406.5t-326 -125.5q-193 0 -338 43l20 180q160 -27 318 -27q106 0 164.5 63.5t58.5 188.5l-27 -12q-29 -10 -86 -22.5t-117 -12.5q-372 0 -372 317zM336 702q0 -59 44 -94t128 -35q53 2 103.5 13.5 t72.5 21.5l25 10q-4 233 -197 234q-176 0 -176 -150z" />
<glyph d="M496 -121v1555h71v-1555h-71z" />
<glyph horiz-adv-x="894" d="M25 506q0 399 356 434v270h72v-266l237 -22l-4 -72q-154 18 -233 20v-712l237 16l4 -72q-162 -18 -241 -18v-260h-72v260q-188 10 -272 100.5t-84 321.5zM106 506q0 -195 59.5 -266.5t215.5 -79.5v706q-137 -14 -206 -100t-69 -260z" />
<glyph d="M125 696v70h506l147 334l72 -29l-135 -305h280v-70h-311l-135 -309h448v-70h-479l-147 -337l-72 28l135 309h-307v70h338l135 309h-475z" />
<glyph horiz-adv-x="1105" d="M51 1352h84l420 -633l414 633h86l-391 -604h344v-70h-390l-26 -41v-195h418v-69h-418v-373h-74v373h-420v69h420v195l-26 41h-396v70h350z" />
<glyph d="M184 -512v1536h72v-528q0 -270 49 -359.5t215 -89.5q172 0 332 100l4 3v874h72v-1024h-72v82l-49 -28q-31 -17 -120 -44.5t-167 -27.5q-193 0 -264 104v-598h-72z" />
<glyph d="M143 -496l4 68q127 -6 185 -6q94 0 141 68.5t47 230.5v856h-141v65h141v228q0 365 260 364l191 -6l-4 -65q-125 4 -187 4q-188 0 -188 -299v-226h332v-65h-332v-856q0 -199 -64.5 -283t-195.5 -84z" />
<glyph horiz-adv-x="348" d="M-12 -252l86 430h82l-105 -430h-63z" />
<glyph horiz-adv-x="507" d="M201 0v164h82v-164h-82z" />
<glyph horiz-adv-x="348" d="M8 1079l82 410h78l-98 -410h-62z" />
<glyph horiz-adv-x="1705" d="M240 1073q0 158 109.5 259.5t271.5 101.5h712v-68h-198v-1366h-74v1366h-352v-1366h-74v717h-14q-162 0 -271.5 99t-109.5 257z" />
<glyph horiz-adv-x="583" d="M-2 -197q168 8 230.5 79t62.5 218q0 35 -7.5 125t-7.5 119q0 133 45.5 195.5t159.5 99.5q-115 37 -160 100.5t-45 190.5l15 237q0 147 -62.5 218t-230.5 79l4 66q195 -8 277.5 -93t82.5 -270q0 -43 -7 -136t-7 -116q0 -100 48 -154t165 -87v-66q-117 -29 -165 -86 t-48 -160q0 -27 7 -124t7 -138q0 -184 -82.5 -269t-277.5 -93z" />
<glyph horiz-adv-x="348" d="M-45 1079l98 410h62l-82 -410h-78z" />
<glyph horiz-adv-x="0" d="M178 344q0 55 10.5 101.5t22.5 75t40 60t43 46t54 44t53 42.5l-41 32q-31 25 -39 33l-33 30q-24 22 -31 34t-22.5 35.5t-19.5 45.5l-9 50q-5 29 -5 63q0 340 481 340q489 0 489 -342q0 -39 -3 -69.5t-17 -59t-20.5 -43t-33.5 -42.5l-34 -34q-6 -6 -46 -37.5t-46 -35.5 q14 -12 62 -48t64.5 -53.5t45 -55.5t39 -83t10.5 -106q0 -215 -133 -303.5t-377 -88.5q-504 0 -504 369zM481 418q0 -152 201 -152q207 0 207 152q0 102 -113 155h-180q-66 -31 -90.5 -67.5t-24.5 -87.5zM504 963q0 -14 1 -24.5t6 -21t8 -15.5t13.5 -14t15.5 -12.5 t22.5 -14.5t25.5 -17h180q8 6 22.5 15t19.5 13.5t15.5 11.5t13.5 12t9 12t7 14.5t3 17.5t2 23q0 66 -38.5 94t-143 28t-143.5 -29.5t-39 -92.5z" />
<glyph horiz-adv-x="733" d="M43 774v248h121v266l274 21v-287h252v-248h-252v-387q0 -61 3 -87t22.5 -44t60.5 -18l156 4l12 -236q-137 -31 -209 -31q-184 0 -251.5 83t-67.5 307v409h-121z" />
<glyph horiz-adv-x="901" d="M123 461v229h655v-229h-655z" />
<glyph horiz-adv-x="507" d="M92 0v291h270v-291h-270z" />
<glyph d="M2 217v270h1036v-270h-1036zM2 641v270h1034v-270h-1034z" />
<glyph horiz-adv-x="1064" d="M55 31h877v-271h-877v271z" />
<glyph horiz-adv-x="694" d="M49 545v188q213 53 213 185q0 27 -7 124t-7 138q0 186 89 268t312 90v-229q-94 -8 -119.5 -38t-25.5 -112q0 -35 7 -114.5t7 -108.5q0 -135 -45 -195.5t-160 -99.5q117 -39 161 -98.5t44 -192.5q0 -29 -7 -105.5t-7 -111.5q0 -84 26.5 -116.5t118.5 -41.5v-229 q-223 8 -312 94t-89 273q0 43 7 136t7 116q0 121 -213 180z" />
<glyph horiz-adv-x="583" d="M-219 -33q94 8 119.5 38t25.5 112q0 35 -7 114.5t-7 108.5q0 135 45 195.5t160 99.5q-117 39 -161 98.5t-44 192.5q0 29 7 105.5t7 111.5q0 84 -26.5 116.5t-118.5 40.5v230q223 -8 312 -94t89 -273q0 -43 -7 -136t-7 -116q0 -121 213 -180v-188q-213 -53 -213 -185 q0 -27 7 -124t7 -138q0 -186 -89 -268t-312 -90v229z" />
<glyph horiz-adv-x="839" d="M-100 389v250h387v385h250v-385h391v-250h-391v-389h-250v389h-387z" />
<glyph horiz-adv-x="542" d="M16 112.5q0 188.5 63.5 266.5t195 78t194.5 -78t63 -266.5t-63 -264t-194.5 -75.5t-195 75.5t-63.5 264zM213 112.5q0 -104.5 14.5 -137t46.5 -32.5q35 0 48.5 32.5t13.5 137t-13.5 139.5t-48 35t-48 -35t-13.5 -139.5z" />
<glyph horiz-adv-x="542" d="M43 285l213 149h172v-639h-188v432l-111 -75z" />
<glyph horiz-adv-x="542" d="M35 -43l160 139q96 82 96 133q0 45 -84 45l-160 -14l-8 176q141 20 231 21q119 0 169 -46t50 -153q0 -68 -27.5 -116t-90.5 -99l-92 -78h215v-170h-459v162z" />
<glyph horiz-adv-x="542" d="M45 -209l10 166q123 -14 197 -14t74 51q0 47 -68 47h-135v154h133q23 0 38 13t15 36q0 43 -67 43l-179 -13l-10 162q133 20 217 21q238 0 238 -181q0 -104 -68 -145q80 -33 80 -151q0 -102 -61.5 -154.5t-171.5 -52.5q-45 0 -105.5 5t-99.5 9z" />
<glyph horiz-adv-x="542" d="M25 33l100 401h209l-121 -389h86l25 184h163v-184h33v-170h-33v-80h-188v80h-274v158z" />
<glyph horiz-adv-x="542" d="M45 -193l14 154q113 -18 193 -18q66 0 65.5 53t-47.5 53l-69 -16l-142 18l23 383h410v-162h-261l-8 -82q55 18 99 19q193 0 192 -203q0 -225 -235 -225q-45 0 -103.5 7t-93.5 13z" />
<glyph horiz-adv-x="542" d="M27 96q0 182 62.5 271.5t209.5 89.5q33 0 84 -6.5t84 -12.5l35 -6l-10 -156q-125 12 -187 13q-86 0 -86 -84l14 4q14 2 38 7t40 5q211 0 211 -215q0 -109 -66.5 -171t-170.5 -62q-258 -1 -258 323zM219 43q0 -104 57 -104q55 0 56 65q0 61 -53 62q-16 0 -31 -6.5 t-23 -10.5z" />
<glyph horiz-adv-x="542" d="M47 248v186h451v-190l-201 -469l-213 35l195 407v31h-232z" />
<glyph horiz-adv-x="542" d="M16 -18q0 61 28 100t50 47q-20 8 -43.5 45t-23.5 102q0 180 245 181q248 0 248 -183q0 -59 -23.5 -100t-43.5 -47q12 -2 27.5 -15.5t31.5 -47t16 -80.5q0 -115 -64.5 -163t-191.5 -48t-191.5 48t-64.5 161zM211 -14q0 -59 61.5 -59.5t61.5 61.5q0 43 -43 65h-37 q-43 -22 -43 -67zM213 252q0 -39 41 -64h37q39 23 39 64q0 51 -58 51q-59 0 -59 -51z" />
<glyph horiz-adv-x="542" d="M25 223q0 111 64.5 172.5t172.5 61.5q260 0 260 -340q0 -178 -61.5 -261t-202.5 -83q-41 0 -94 7t-86 15l-31 6l12 154q96 -12 174 -12q88 0 89 80l-15 -3q-12 -2 -33.5 -6t-40.5 -4q-208 0 -208 213zM215 223q0 -29 15.5 -47t37.5 -18l62 18q0 113 -60 113 q-55 0 -55 -66z" />
<glyph horiz-adv-x="1523" d="M133 0v305h252v-305h-252zM653 0v305h254v-305h-254zM1176 0v305h251v-305h-251z" />
<glyph horiz-adv-x="790" d="M12 -49q0 100 38 182t93.5 132t109.5 91t92 82t38 84v78h252v-84q0 -76 -38 -137.5t-92 -103.5l-108 -81q-53 -40 -91 -94.5t-38 -119.5q0 -94 41 -133.5t164 -39.5l309 41l29 -229q-238 -57 -348 -57q-238 0 -344.5 88t-106.5 301zM383 717v305h252v-305h-252z" />
<glyph horiz-adv-x="790" d="M16 365q0 100 38 182t93.5 132t109.5 91t92 82t38 84v78h252v-84q0 -76 -38 -137.5t-92 -103.5l-108 -82q-53 -40 -91 -94t-38 -120q0 -94 41 -133t164 -39l309 41l29 -229q-238 -57 -348 -58q-238 0 -344.5 88.5t-106.5 301.5zM387 1130v306h252v-306h-252z" />
<glyph horiz-adv-x="790" d="M16 365q0 100 38 182t93.5 132t109.5 91t92 82t38 84v78h252v-84q0 -76 -38 -137.5t-92 -103.5l-108 -82q-53 -40 -91 -94t-38 -120q0 -94 41 -133t164 -39l309 41l29 -229q-238 -57 -348 -58q-238 0 -344.5 88.5t-106.5 301.5zM387 1130v306h252v-306h-252z" />
<glyph horiz-adv-x="1024" d="M0 514v213h1024v-213h-1024z" />
<glyph horiz-adv-x="2048" d="M0 514v213h2048v-213h-2048z" />
<glyph horiz-adv-x="507" d="M115 528v306h252v-306h-252z" />
<glyph d="M428 -330l8 920h240l8 -920h-256zM430 799v305h252v-305h-252z" />
<glyph horiz-adv-x="532" d="M31 678q0 182 49 411.5t100 368.5l49 139h254q-23 -59 -54.5 -158.5t-85.5 -344t-54 -416.5q0 -342 178 -830l16 -43h-254q-23 51 -55.5 139.5t-87.5 320t-55 413.5z" />
<glyph horiz-adv-x="532" d="M16 -184q23 59 54.5 158.5t86 344t54.5 416.5q0 342 -178 830l-17 43h254q23 -51 55.5 -139.5t88 -319.5t55.5 -413.5t-50 -412t-100 -368.5l-49 -139h-254z" />
<glyph horiz-adv-x="614" d="M66 1595h489v-229h-248v-1327h248v-229h-487z" />
<glyph horiz-adv-x="614" d="M57 39h248v1327h-248v229h490l-2 -1785h-488v229z" />
<glyph horiz-adv-x="671" d="M39 602v197q113 29 155 72.5t42 123.5q0 27 -7.5 124.5t-7.5 137.5q0 190 99.5 270.5t326.5 88.5l2 -230q-109 -8 -142.5 -37.5t-33.5 -107.5q0 -35 7 -133t7 -127q0 -123 -45 -182.5t-159 -96.5q113 -37 158.5 -102t45.5 -188q0 -31 -7 -117t-7 -121q0 -80 35 -112.5 t141 -41.5l-2 -229q-223 8 -324.5 91t-101.5 263q0 43 7.5 134.5t7.5 113.5q0 80 -43 129t-154 80z" />
<glyph horiz-adv-x="671" d="M18 12q109 8 143 38t34 108q0 35 -7.5 133t-7.5 127q0 123 45 182t160 96q-113 37 -159 102.5t-46 188.5q0 31 7.5 117t7.5 121q0 80 -35 112.5t-142 40.5l2 230q223 -8 324.5 -91t101.5 -264q0 -43 -7 -134t-7 -113q0 -80 43 -129.5t154 -79.5v-197q-113 -29 -155 -73 t-42 -124q0 -27 7 -124t7 -138q0 -190 -99 -270t-327 -88z" />
<glyph horiz-adv-x="526" d="M14 1722l78 220l500 -189l-72 -197z" />
<glyph horiz-adv-x="526" d="M14 1722l78 220l500 -189l-72 -197z" />
<glyph horiz-adv-x="526" d="M0 1769l500 191l78 -221l-506 -164z" />
<glyph horiz-adv-x="526" d="M6 1769l500 191l78 -221l-506 -164z" />
<glyph horiz-adv-x="978" d="M70 1618l270 295h213l270 -295h-264l-110 108l-109 -108h-270z" />
<glyph horiz-adv-x="526" d="M-70 1618l271 295h213l270 -295h-264l-111 108l-108 -108h-271z" />
<glyph horiz-adv-x="526" d="M-86 1907h268l111 -115l108 115h265l-269 -295h-211z" />
<glyph horiz-adv-x="526" d="M-90 1907h268l111 -115l108 115h265l-269 -295h-211z" />
<glyph horiz-adv-x="526" d="M-80 1798q12 14 33.5 35.5t78 56.5t101.5 35q66 0 191 -48t147.5 -48t63 21.5t71.5 41.5l29 23l51 -178q-12 -14 -32.5 -36t-76 -56.5t-100.5 -34.5q-55 0 -184 49t-158 49q-25 0 -65.5 -22.5t-69.5 -43.5l-29 -22z" />
<glyph horiz-adv-x="526" d="M-80 1798q12 14 33.5 35.5t78 56.5t101.5 35q66 0 191 -48t147.5 -48t63 21.5t71.5 41.5l29 23l51 -178q-12 -14 -32.5 -36t-76 -56.5t-100.5 -34.5q-55 0 -184 49t-158 49q-25 0 -65.5 -22.5t-69.5 -43.5l-29 -22z" />
<glyph horiz-adv-x="526" d="M-57 1645v241h223v-241h-223zM387 1645v241h223v-241h-223z" />
<glyph horiz-adv-x="526" d="M-57 1645v241h223v-241h-223zM387 1645v241h223v-241h-223z" />
<glyph horiz-adv-x="526" d="M-49 1638v203h686v-203h-686z" />
<glyph horiz-adv-x="526" d="M-49 1638v203h686v-203h-686z" />
<glyph horiz-adv-x="526" d="M-55 1903h241q14 -100 119 -101q111 0 121 101h244q-12 -133 -105.5 -215t-259.5 -82q-164 0 -256 82t-104 215z" />
<glyph horiz-adv-x="526" d="M-55 1903h241q14 -100 119 -101q111 0 121 101h244q-12 -133 -105.5 -215t-259.5 -82q-164 0 -256 82t-104 215z" />
<glyph horiz-adv-x="526" d="M8 1518q0 115 81 179t204 64t205 -64.5t82 -178.5q0 -113 -82 -178.5t-205 -65.5t-204 65.5t-81 178.5zM190 1517.5q0 -36.5 28 -58t75 -21.5t75.5 21.5t28.5 58t-28.5 58t-75.5 21.5t-75 -21.5t-28 -58z" />
<glyph horiz-adv-x="526" d="M-10 1518q0 115 81 179t203.5 64t204.5 -64.5t82 -178.5q0 -113 -82 -178.5t-204.5 -65.5t-203.5 65.5t-81 178.5zM172 1517.5q0 -36.5 27.5 -58t75 -21.5t76 21.5t28.5 58t-28.5 58t-76 21.5t-75 -21.5t-27.5 -58z" />
<glyph horiz-adv-x="526" d="M-76 1612l189 358l213 -86l-207 -348zM360 1610l189 358l211 -86l-205 -348z" />
<glyph horiz-adv-x="526" d="M-76 1612l189 358l213 -86l-207 -348zM360 1610l189 358l211 -86l-205 -348z" />
<glyph horiz-adv-x="526" d="M147 1593v244h234v-244h-234z" />
<glyph horiz-adv-x="526" d="M147 1593v244h234v-244h-234z" />
<glyph horiz-adv-x="542" d="M16 1091.5q0 188.5 63.5 266.5t195 78t194.5 -78t63 -266.5t-63 -264t-194.5 -75.5t-195 75.5t-63.5 264zM213 1091.5q0 -104.5 14.5 -137t46.5 -32.5q35 0 48.5 32.5t13.5 137t-13.5 139.5t-48 35t-48 -35t-13.5 -139.5z" />
<glyph horiz-adv-x="542" d="M27 1264l213 149h172v-639h-189v432l-110 -76z" />
<glyph horiz-adv-x="542" d="M35 774v162l160 139q96 82 96 133q0 45 -84 45l-160 -14l-8 176q141 20 231 21q119 0 169 -46.5t50 -152.5q0 -68 -27.5 -116t-90.5 -99l-92 -78h215v-170h-459z" />
<glyph horiz-adv-x="542" d="M45 770l10 166q123 -14 197 -14t74 51q0 47 -68 47h-135v154h133q23 0 38 13t15 36q0 43 -67 43l-179 -13l-10 162q133 20 217 21q238 0 238 -181q0 -104 -68 -145q80 -33 80 -152q0 -102 -61.5 -154t-171.5 -52q-45 0 -105.5 5t-99.5 9z" />
<glyph horiz-adv-x="542" d="M25 854v158l100 401h209l-121 -389h86l25 184h163v-184h33v-170h-33v-80h-188v80h-274z" />
<glyph horiz-adv-x="542" d="M45 786l14 154q113 -18 193 -18q66 0 65.5 53t-47.5 53l-69 -16l-142 18l23 383h410v-162h-261l-8 -82q55 18 99 19q193 0 192 -203q0 -225 -235 -225q-45 0 -103.5 7t-93.5 13z" />
<glyph horiz-adv-x="542" d="M27 1075q0 182 62.5 271.5t209.5 89.5q33 0 83 -6.5t85 -12.5l35 -6l-10 -156q-125 12 -187 13q-86 0 -86 -84l14 4q14 2 38 7t40 5q211 0 211 -215q0 -109 -66.5 -171t-170.5 -62q-258 -1 -258 323zM219 1022q0 -104 57 -104q55 0 56 65q0 61 -53 61q-16 0 -31 -6 t-23 -10z" />
<glyph horiz-adv-x="542" d="M47 1227v186h451v-190l-201 -469l-213 34l195 408v31h-232z" />
<glyph horiz-adv-x="542" d="M16 961q0 61 28 100t50 47q-20 8 -43.5 45t-23.5 102q0 180 245 181q248 0 248 -183q0 -59 -23.5 -100t-43.5 -47q12 -2 27.5 -15.5t31.5 -47t16 -80.5q0 -115 -64.5 -163t-191.5 -48t-191.5 48t-64.5 161zM211 965q0 -59 61.5 -59.5t61.5 61.5q0 43 -43 65h-37 q-43 -22 -43 -67zM213 1231q0 -39 41 -64h37q39 23 39 64q0 51 -58 51q-59 0 -59 -51z" />
<glyph horiz-adv-x="542" d="M25 1202q0 111 64.5 172.5t172.5 61.5q260 0 260 -340q0 -178 -61.5 -261t-202.5 -83q-41 0 -94 7t-86 15l-31 6l12 154q96 -12 174 -12q88 0 89 79l-15 -2q-12 -2 -33.5 -6t-40.5 -4q-208 0 -208 213zM215 1202q0 -29 15.5 -47t37.5 -18l62 18q0 113 -60 113 q-55 0 -55 -66z" />
</font>
</defs>
</svg>
